<svg width="70" height="98" viewBox="0 0 70 98" fill="none" xmlns="http://www.w3.org/2000/svg">
<path fill-rule="evenodd" clip-rule="evenodd" d="M46.2229 14.7719C47.558 13.2233 48.4615 11.3255 48.3105 9.19892C47.8755 3.07174 39.2446 4.41964 37.5657 7.51211C35.8869 10.6046 36.0864 18.4489 38.2562 19.0016C39.1215 19.222 40.9649 18.6821 42.841 17.5646L41.6634 25.7976H48.6167L46.2229 14.7719Z" fill="#B28B67"/>
<path fill-rule="evenodd" clip-rule="evenodd" d="M51.3421 7.15935C51.5667 6.93941 51.6892 6.62548 51.7951 6.3274C51.9052 6.01775 52.0121 5.7049 52.0852 5.3826C52.2312 4.73862 52.2326 3.99804 51.7677 3.49799C51.3949 3.097 50.8355 2.91715 50.3192 2.87806C49.9752 2.85199 49.6219 2.8996 49.2922 3.00672C48.965 3.11298 48.683 3.32477 48.3659 3.45622C48.3538 2.76225 48.2335 2.03611 47.8772 1.44355C47.5344 0.873421 46.9878 0.553484 46.3653 0.468841C45.7264 0.381977 45.0955 0.529723 44.5236 0.835388C44.3804 0.911939 44.2385 0.992137 44.1027 1.0829C43.9891 1.15891 43.8709 1.25045 43.7375 1.28136C43.5888 1.31586 43.5151 1.23099 43.4185 1.12379C43.3051 0.998091 43.1775 0.887381 43.0424 0.789234C42.4451 0.355339 41.6613 0.176938 40.9693 0.437019C40.6505 0.556845 40.3404 0.760346 40.1241 1.04077C39.9313 1.29074 39.7937 1.68725 39.5276 1.86141C39.4147 1.93534 39.3349 1.83739 39.2321 1.765C39.0776 1.65623 38.9303 1.5362 38.774 1.43039C38.5544 1.28173 38.3167 1.17054 38.0621 1.11233C37.6894 1.02712 37.1744 1.04709 37.0678 1.52948C37.0278 1.71067 37.0585 1.90446 37.0714 2.08702C37.0891 2.3377 37.1076 2.58829 37.1297 2.8386C37.1464 3.02865 37.1675 3.21221 37.2038 3.39885C37.2232 3.49833 37.2838 3.6838 37.2406 3.78343C37.1867 3.90795 36.9377 3.83716 36.8313 3.84149C36.6212 3.85006 36.4102 3.88647 36.2159 3.97519C36.0654 4.04396 35.9071 4.1451 35.8435 4.31564C35.8045 4.42039 35.8148 4.528 35.8332 4.63578C35.8554 4.76512 35.8301 4.83372 35.8135 4.96423C35.5313 4.82691 34.5535 4.52182 34.4304 5.02158C34.3895 5.18799 34.4827 5.37602 34.5539 5.51636C34.6787 5.76251 34.8424 5.98749 35.0097 6.20204C35.3587 6.64964 35.7753 7.0357 36.2236 7.36587C35.6984 7.59661 35.5613 8.27719 36.016 8.68268C36.2168 8.86171 36.4867 8.90157 36.74 8.89012C36.8327 8.88593 36.9663 8.85071 37.0392 8.86667C37.0785 8.87524 37.1205 8.90812 37.1749 8.9118C37.5323 8.93598 37.9358 8.85089 38.2852 8.77251C38.9077 8.63286 39.4971 8.34138 39.9784 7.89746C40.1019 7.78358 40.2039 7.71803 40.3701 7.71971C40.5157 7.72116 40.6586 7.76062 40.8041 7.76427C41.189 7.77398 41.5361 7.588 41.8936 7.46421C41.9155 7.94144 42.053 8.46705 42.2505 8.89638C42.4116 9.24649 42.748 9.29737 43.0786 9.32808C44.1356 9.42637 45.1964 9.31669 46.2548 9.31814C45.2303 9.547 44.1716 9.64133 43.1561 9.91064C42.6971 10.0323 43.0476 10.3381 43.2439 10.55C43.567 10.899 43.8073 11.3314 43.974 11.787C44.4752 11.1413 45.3611 10.7159 46.1459 10.9143C47.0131 11.1334 47.6238 12.2923 47.0692 13.1255C46.7473 13.6091 46.1659 13.7959 45.6821 14.0037C46.0595 14.3914 46.1508 14.9641 46.378 15.4465C46.49 15.6844 46.6472 15.9533 46.8978 16.0362C46.9905 16.0669 47.0992 16.0695 47.1723 16.1442C47.2629 16.2367 47.2844 16.34 47.4001 16.4195C47.8617 16.7366 48.5828 16.7122 48.9919 16.2983C49.3619 15.924 49.2656 15.3317 48.9566 14.9522C49.4485 14.7496 50.3447 14.489 50.1492 13.7317C51.215 13.6618 53.8029 11.9535 52.3724 10.7052C53.1575 10.2667 53.8787 9.1951 53.3744 8.25047C52.9861 7.52307 52.083 7.19792 51.3421 7.15935Z" fill="#CBAC4F"/>
<path fill-rule="evenodd" clip-rule="evenodd" d="M61.1841 61.5864H38.8018L35.869 97.0889H69.187L61.1841 61.5864Z" fill="#C5CFD6"/>
<path fill-rule="evenodd" clip-rule="evenodd" d="M61.1841 61.5864H54.3003L50.1802 97.0889H69.187L61.1841 61.5864Z" fill="black" fill-opacity="0.1"/>
<path fill-rule="evenodd" clip-rule="evenodd" d="M13.2843 55.5041C10.898 54.088 6.89418 55.9073 6.89693 57.9326C6.90516 63.9922 12.5011 92.5512 12.7933 94.3566C13.0855 96.1619 16.2154 96.6388 16.3976 94.3625C16.6876 90.7405 17.2264 78.2019 16.6873 72.3982C16.4648 70.0026 16.2252 67.7211 15.9892 65.6857C18.9256 70.926 23.4669 78.4289 29.6131 88.1943L32.9497 86.6879C30.3296 78.1569 28.1811 72.1343 26.5043 68.62C23.6332 62.6027 20.9411 57.4497 19.8081 55.6346C18.0258 52.7794 14.9235 53.7756 13.2843 55.5041Z" fill="#B28B67"/>
<path fill-rule="evenodd" clip-rule="evenodd" d="M32.7111 81.9504L21.2591 55.1408C18.5156 50.7796 10.8236 56.0283 11.7592 58.5578C13.8833 64.3005 24.6858 82.892 25.3186 84.603L32.7111 81.9504Z" fill="#1F28CF"/>
<path fill-rule="evenodd" clip-rule="evenodd" d="M33.3373 85.0022C34.0524 85.5856 34.518 86.0618 34.7338 86.4308C34.9963 86.8796 35.3041 87.5773 35.6571 88.5241C35.1328 88.8229 30.4204 91.5082 21.5199 96.5801C20.4471 95.5836 20.2784 94.8117 21.0137 94.2646C21.7489 93.7174 22.3557 93.2559 22.8339 92.8801L27.7034 86.2273C27.7971 86.0993 27.9783 86.0713 28.1081 86.1647C28.1103 86.1663 28.1125 86.1679 28.1147 86.1696L29.1321 86.9461C30.0634 86.868 30.7581 86.6984 31.2162 86.4374C31.5885 86.2253 32.0152 85.7831 32.4964 85.1109L32.4964 85.1109C32.6811 84.8529 33.0428 84.7931 33.3043 84.9772C33.3156 84.9852 33.3266 84.9935 33.3373 85.0022Z" fill="#E4E4E4"/>
<path fill-rule="evenodd" clip-rule="evenodd" d="M17.1303 92.9094C17.4544 93.7645 17.6165 94.4042 17.6165 94.8288C17.6165 95.345 17.5294 96.0985 17.3553 97.089C16.7493 97.089 11.3023 97.089 1.01451 97.089C0.58987 95.7017 0.834997 94.9527 1.74989 94.8421C2.66479 94.7315 3.4248 94.6316 4.02995 94.5424L11.625 91.1964C11.7712 91.132 11.9424 91.1969 12.0076 91.3413C12.0087 91.3438 12.0098 91.3463 12.0108 91.3488L12.499 92.5191C13.346 92.9096 14.0342 93.1049 14.5637 93.1049C14.994 93.1049 15.5881 92.9332 16.3462 92.5897L16.3462 92.5897C16.6371 92.4579 16.981 92.5842 17.1144 92.8717C17.1201 92.884 17.1254 92.8966 17.1303 92.9094Z" fill="#E4E4E4"/>
<path fill-rule="evenodd" clip-rule="evenodd" d="M6.09417 59.9926C6.09417 67.599 9.74953 85.3417 9.75184 87.0166L17.6165 87.0225C16.4654 71.1909 16.0572 63.1898 16.392 63.0192C16.8941 62.7634 36.9769 65.0007 43.0001 65.0007C51.6855 65.0007 55.2785 59.5881 55.5701 49.5614H38.3645C34.8614 49.9318 16.5883 53.5741 9.80211 54.8262C6.89681 55.3622 6.09417 57.8972 6.09417 59.9926Z" fill="#2B44FF"/>
<path fill-rule="evenodd" clip-rule="evenodd" d="M35.6843 31.7244L25.6281 26.2815C23.9559 24.3191 22.3082 22.795 20.6852 21.7092C20.1892 21.5046 19.3219 21.3807 20.133 22.8034C20.9441 24.226 21.7325 25.7584 21.3193 26.1967C20.906 26.635 19.8757 26.0227 19.3827 26.751C19.0541 27.2364 20.8144 28.0034 24.6637 29.0517L31.9707 35.6633L35.6843 31.7244ZM19.9345 36.3167L15.5172 33.9187C14.8974 31.588 14.1565 30.4154 13.2945 30.4008C12.6323 30.0963 13.7855 33.0413 12.5302 32.7859C11.2749 32.5305 8.2111 30.2787 7.68318 30.7359C6.90216 31.4123 7.59857 33.4893 8.41909 34.5225C9.95266 36.4535 11.2224 37.1139 14.3607 37.9786C16.0016 38.4307 17.7757 39.337 19.6829 40.6974L19.9345 36.3167Z" fill="#997659"/>
<path fill-rule="evenodd" clip-rule="evenodd" d="M40.5816 30.512C37.0593 30.4752 32.3623 29.74 27.3505 26.5962L25.3823 30.9338C28.8393 34.3242 33.7001 37.1098 37.9504 36.9919C41.2998 36.8989 43.0116 32.8952 40.5816 30.512Z" fill="#2026A2"/>
<path fill-rule="evenodd" clip-rule="evenodd" d="M35.8389 37.4681C32.0995 38.3897 25.8288 37.3029 17.0268 34.2077C14.8435 38.6713 13.8343 41.8535 13.999 43.7543C21.5498 47.6521 28.0216 49.39 33.3534 49.5047C33.184 52.6311 33.569 55.6061 34.8626 58.3243C37.5221 63.9126 53.0945 58.7372 58.3304 59.7559C61.6093 49.2326 55.2695 44.956 55.2644 38.2226C55.2588 30.8489 49.2675 19.4989 48.386 19.4989H40.3471C39.9036 25.1303 37.6711 31.3367 35.8389 37.4681Z" fill="#1F28CF"/>
</svg>
