<svg width="27" height="24" viewBox="0 0 27 24" fill="none" xmlns="http://www.w3.org/2000/svg">
<path d="M5.34662 14.0146C5.27372 14.0307 5.21068 14.0174 5.15748 13.9746C5.11469 13.9294 5.09043 13.8693 5.08468 13.7941L4.3929 5.57291C4.38602 5.44333 4.41211 5.33921 4.47115 5.26057C4.52789 5.17151 4.61874 5.11313 4.74371 5.08543C4.87909 5.05541 4.98725 5.07514 5.0682 5.1446C5.14685 5.20364 5.19192 5.30837 5.20341 5.45878L5.52899 13.7283C5.53012 13.7827 5.51563 13.8406 5.48551 13.9019C5.4554 13.9632 5.4091 14.0007 5.34662 14.0146ZM5.57613 16.6023C5.40951 16.6392 5.25623 16.6131 5.11628 16.5239C4.97633 16.4348 4.88789 16.3069 4.85095 16.1403C4.8117 15.9632 4.83781 15.8099 4.92928 15.6804C5.01843 15.5405 5.14632 15.452 5.31294 15.4151C5.48998 15.3758 5.64326 15.4019 5.7728 15.4934C5.90002 15.5745 5.98326 15.7035 6.02251 15.8805C6.05945 16.0472 6.03854 16.1993 5.9598 16.3369C5.88106 16.4746 5.75317 16.563 5.57613 16.6023Z" fill="#EB5757"/>
<path d="M18.8478 14.0587C18.7557 14.0314 18.7035 13.9825 18.6909 13.9121C18.6815 13.8314 18.697 13.7415 18.7375 13.6422C18.9038 13.2687 19.0916 12.935 19.3011 12.641C19.5135 12.3369 19.7976 12.0539 20.1533 11.7921C20.512 11.5201 20.982 11.2477 21.5634 10.975C22.1051 10.7238 22.541 10.4914 22.8713 10.2777C23.2118 10.0671 23.4726 9.84396 23.6536 9.60834C23.8479 9.36553 23.9905 9.09071 24.0814 8.78389C24.2147 8.33388 24.1785 7.91154 23.9728 7.51686C23.7773 7.12521 23.3625 6.83548 22.7284 6.64765C22.2171 6.49617 21.6989 6.4428 21.1739 6.48754C20.6591 6.53531 20.1574 6.67038 19.6688 6.89276C19.5658 6.94012 19.4718 6.95679 19.387 6.94278C19.3124 6.93181 19.254 6.9034 19.212 6.85757C19.173 6.80151 19.1523 6.73977 19.1501 6.67235C19.1478 6.60493 19.1675 6.53845 19.2091 6.47292C19.2538 6.39716 19.3277 6.3356 19.4307 6.28824C19.9651 6.02381 20.5439 5.87263 21.167 5.8347C21.7901 5.79678 22.3727 5.8581 22.9147 6.01866C23.467 6.18225 23.897 6.42086 24.2046 6.73447C24.5254 7.04088 24.7279 7.3901 24.812 7.78214C24.8992 8.16395 24.8837 8.55428 24.7655 8.95315C24.6565 9.32134 24.4671 9.66018 24.1974 9.96966C23.941 10.272 23.6079 10.5515 23.1981 10.8084C22.7985 11.0682 22.3294 11.3187 21.7907 11.5596C21.2756 11.7964 20.8535 12.0385 20.5243 12.2858C20.1982 12.523 19.9365 12.7681 19.7392 13.0211C19.5449 13.2639 19.3761 13.5143 19.233 13.7723C19.1762 13.889 19.1182 13.9719 19.0591 14.0212C19 14.0704 18.9296 14.0829 18.8478 14.0587ZM17.7741 16.444C17.6105 16.3955 17.4891 16.2983 17.4099 16.1525C17.3307 16.0067 17.3153 15.852 17.3638 15.6883C17.4153 15.5144 17.5125 15.393 17.6553 15.3241C17.8011 15.2449 17.9558 15.2296 18.1195 15.278C18.2933 15.3295 18.4147 15.4267 18.4837 15.5695C18.5557 15.702 18.5659 15.8553 18.5144 16.0291C18.4659 16.1928 18.3739 16.3157 18.2383 16.3979C18.1027 16.4801 17.948 16.4955 17.7741 16.444Z" fill="#418DD9"/>
</svg>
