<svg xmlns="http://www.w3.org/2000/svg" xmlns:xlink="http://www.w3.org/1999/xlink" viewBox="0 0 500 500" width="500" height="500" preserveAspectRatio="xMidYMid meet" style="width: 100%; height: 100%; transform: translate3d(0px, 0px, 0px); content-visibility: visible;"><defs><clipPath id="__lottie_element_804"><rect width="500" height="500" x="0" y="0"/></clipPath><clipPath id="__lottie_element_806"><path d="M0,0 L500,0 L500,500 L0,500z"/></clipPath><g id="__lottie_element_854"><g clip-path="url(#__lottie_element_855)" transform="matrix(1.000048279762268,0,0,1.000048279762268,-0.007261199876666069,-0.023267211392521858)" opacity="1" style="display: block;"><g class="primary design" transform="matrix(1,0,0,1,0,0)" opacity="1" style="display: block;"><g opacity="1" transform="matrix(1,0,0,1,250.0050048828125,244.7949981689453)"><path stroke-linecap="round" stroke-linejoin="round" fill-opacity="0" stroke="rgb(255,0,0)" stroke-opacity="1" stroke-width="41" d=" M-83.58399963378906,-18 C-83.58399963378906,-18 83.5,-18 83.5,-18"/></g><g opacity="1" transform="matrix(1,0,0,1,250.0050048828125,302.3059997558594)"><path stroke-linecap="round" stroke-linejoin="round" fill-opacity="0" stroke="rgb(255,0,0)" stroke-opacity="1" stroke-width="41" d=" M-83.54199981689453,7.75 C-83.54199981689453,7.75 83.54199981689453,7.75 83.54199981689453,7.75"/></g><g opacity="1" transform="matrix(1,0,0,1,197.92100524902344,359.37799072265625)"><path stroke-linecap="round" stroke-linejoin="round" fill-opacity="0" stroke="rgb(255,0,0)" stroke-opacity="1" stroke-width="41" d=" M-31.458999633789062,34 C-31.458999633789062,34 52.20899963378906,34 52.20899963378906,34"/></g></g><g class="primary design" transform="matrix(1,0,0,1,0,0)" opacity="1" style="display: none;"><g opacity="1" transform="matrix(1,0,0,1,250.0050048828125,244.7949981689453)"><path stroke-linecap="round" stroke-linejoin="round" fill-opacity="0" stroke="rgb(255,0,0)" stroke-opacity="1" stroke-width="41" d=" M204.41600036621094,-18.5 C204.41600036621094,-18.5 203.99600219726562,-18.5 203.99600219726562,-18.5"/></g><g opacity="1" transform="matrix(1,0,0,1,250.0050048828125,302.3059997558594)"><path stroke-linecap="round" stroke-linejoin="round" fill-opacity="0" stroke="rgb(255,0,0)" stroke-opacity="1" stroke-width="41" d=" M204.41600036621094,7.25 C204.41600036621094,7.25 203.9949951171875,7.25 203.9949951171875,7.25"/></g><g opacity="1" transform="matrix(1,0,0,1,197.92100524902344,359.37799072265625)"><path stroke-linecap="round" stroke-linejoin="round" fill-opacity="0" stroke="rgb(255,0,0)" stroke-opacity="1" stroke-width="41" d=" M256.4989929199219,33.5 C256.4989929199219,33.5 256.28900146484375,33.5 256.28900146484375,33.5"/></g></g></g></g><clipPath id="__lottie_element_855"><path d="M0,0 L500,0 L500,500 L0,500z"/></clipPath><filter id="__lottie_element_858" filterUnits="objectBoundingBox" x="0%" y="0%" width="100%" height="100%"><feComponentTransfer in="SourceGraphic"><feFuncA type="table" tableValues="1.0 0.0"/></feComponentTransfer></filter><mask id="__lottie_element_854_2" mask-type="alpha"><g filter="url(#__lottie_element_858)"><rect width="500" height="500" x="0" y="0" fill="#ffffff" opacity="0"/><use xmlns:ns1="http://www.w3.org/1999/xlink" ns1:href="#__lottie_element_854"/></g></mask></defs><g clip-path="url(#__lottie_element_804)"><g clip-path="url(#__lottie_element_806)" transform="matrix(1,0,0,1,0,0)" opacity="1" style="display: block;"><g mask="url(#__lottie_element_854_2)" style="display: none;"><g class="primary design" transform="matrix(20.829999923706055,0,0,20.829999923706055,-4957.4951171875,-4957.365234375)" opacity="1"><g opacity="1" transform="matrix(1,0,0,1,253.5,253)"><path class="primary" fill="rgb(18,19,49)" fill-opacity="1" d=" M2.75,-12 C2.75,-12 1.5,-12 1.5,-12 C1.5,-12.550000190734863 1.0499999523162842,-13 0.5,-13 C0.5,-13 -7.5,-13 -7.5,-13 C-8.050000190734863,-13 -8.5,-12.550000190734863 -8.5,-12 C-8.5,-12 -9.75,-12 -9.75,-12 C-10.710000038146973,-12 -11.5,-11.210000038146973 -11.5,-10.25 C-11.5,-10.25 -11.5,5.25 -11.5,5.25 C-11.5,6.21999979019165 -10.710000038146973,7 -9.75,7 C-9.75,7 2.75,7 2.75,7 C3.7100000381469727,7 4.5,6.21999979019165 4.5,5.25 C4.5,5.25 4.5,-10.25 4.5,-10.25 C4.5,-11.210000038146973 3.7100000381469727,-12 2.75,-12z M-6.5,-11 C-6.5,-11 -0.5,-11 -0.5,-11 C-0.5,-11 -0.5,-9 -0.5,-9 C-0.5,-9 -6.5,-9 -6.5,-9 C-6.5,-9 -6.5,-11 -6.5,-11z"/></g></g></g><g class="primary design" transform="matrix(20.829999923706055,0,0,20.829999923706055,-4957.50390625,-4959.98388671875)" opacity="1" style="display: block;"><g opacity="1" transform="matrix(1,0,0,1,250,243)"><path class="primary" fill="rgb(18,19,49)" fill-opacity="1" d=" M6.25,-1.9040000438690186 C6.25,-1.9040000438690186 5,-1.9040000438690186 5,-1.9040000438690186 C5,-2.4539999961853027 4.550000190734863,-2.9040000438690186 4,-2.9040000438690186 C4,-2.9040000438690186 -4,-2.9040000438690186 -4,-2.9040000438690186 C-4.550000190734863,-2.9040000438690186 -5,-2.4539999961853027 -5,-1.9040000438690186 C-5,-1.9040000438690186 -6.25,-1.9040000438690186 -6.25,-1.9040000438690186 C-7.210000038146973,-1.9040000438690186 -8,-1.1139999628067017 -8,-0.15399999916553497 C-8,-0.15399999916553497 -8,15.345999717712402 -8,15.345999717712402 C-8,16.31599998474121 -7.210000038146973,17.09600067138672 -6.25,17.09600067138672 C-6.25,17.09600067138672 6.25,17.09600067138672 6.25,17.09600067138672 C7.210000038146973,17.09600067138672 8,16.31599998474121 8,15.345999717712402 C8,15.345999717712402 8,-0.15399999916553497 8,-0.15399999916553497 C8,-1.1139999628067017 7.210000038146973,-1.9040000438690186 6.25,-1.9040000438690186z M-3,-0.40400001406669617 C-3,-0.40400001406669617 -3,-0.9039999842643738 -3,-0.9039999842643738 C-3,-0.9039999842643738 3,-0.9039999842643738 3,-0.9039999842643738 C3,-0.9039999842643738 3,-0.40400001406669617 3,-0.40400001406669617 C3,-0.40400001406669617 3,1.0959999561309814 3,1.0959999561309814 C3,1.0959999561309814 -3,1.0959999561309814 -3,1.0959999561309814 C-3,1.0959999561309814 -3,-0.40400001406669617 -3,-0.40400001406669617z M-4,11 C-4.550000190734863,11 -5,10.550000190734863 -5,10 C-5,9.449999809265137 -4.550000190734863,9 -4,9 C-4,9 4,9 4,9 C4.550000190734863,9 5,9.449999809265137 5,10 C5,10.550000190734863 4.550000190734863,11 4,11 C4,11 -4,11 -4,11z M1,14 C1,14.550000190734863 0.550000011920929,15 0,15 C0,15 -4,15 -4,15 C-4.550000190734863,15 -5,14.550000190734863 -5,14 C-5,13.449999809265137 -4.550000190734863,13 -4,13 C-4,13 0,13 0,13 C0.550000011920929,13 1,13.449999809265137 1,14z M4,7 C4,7 -4,7 -4,7 C-4.550000190734863,7 -5,6.550000190734863 -5,6 C-5,5.449999809265137 -4.550000190734863,5 -4,5 C-4,5 4,5 4,5 C4.550000190734863,5 5,5.449999809265137 5,6 C5,6.550000190734863 4.550000190734863,7 4,7z"/></g></g><g class="primary design" transform="matrix(20.829999923706055,0,0,20.829999923706055,-4957.50390625,-4959.98388671875)" opacity="1" style="display: none;"><g opacity="1" transform="matrix(1,0,0,1,250,243)"><path class="primary" fill="rgb(18,19,49)" fill-opacity="1" d=" M6.25,-1.9040000438690186 C6.25,-1.9040000438690186 5,-1.9040000438690186 5,-1.9040000438690186 C5,-2.4539999961853027 4.550000190734863,-2.9040000438690186 4,-2.9040000438690186 C4,-2.9040000438690186 -4,-2.9040000438690186 -4,-2.9040000438690186 C-4.550000190734863,-2.9040000438690186 -5,-2.4539999961853027 -5,-1.9040000438690186 C-5,-1.9040000438690186 -6.25,-1.9040000438690186 -6.25,-1.9040000438690186 C-7.210000038146973,-1.9040000438690186 -8,-1.1139999628067017 -8,-0.15399999916553497 C-8,-0.15399999916553497 -8,15.345999717712402 -8,15.345999717712402 C-8,16.31599998474121 -7.210000038146973,17.09600067138672 -6.25,17.09600067138672 C-6.25,17.09600067138672 6.25,17.09600067138672 6.25,17.09600067138672 C7.210000038146973,17.09600067138672 8,16.31599998474121 8,15.345999717712402 C8,15.345999717712402 8,-0.15399999916553497 8,-0.15399999916553497 C8,-1.1139999628067017 7.210000038146973,-1.9040000438690186 6.25,-1.9040000438690186z M-3,-0.40400001406669617 C-3,-0.40400001406669617 -3,-0.9039999842643738 -3,-0.9039999842643738 C-3,-0.9039999842643738 3,-0.9039999842643738 3,-0.9039999842643738 C3,-0.9039999842643738 3,-0.40400001406669617 3,-0.40400001406669617 C3,-0.40400001406669617 3,1.0959999561309814 3,1.0959999561309814 C3,1.0959999561309814 -3,1.0959999561309814 -3,1.0959999561309814 C-3,1.0959999561309814 -3,-0.40400001406669617 -3,-0.40400001406669617z M-4,11 C-4.550000190734863,11 -5,10.550000190734863 -5,10 C-5,9.449999809265137 -4.550000190734863,9 -4,9 C-4,9 4,9 4,9 C4.550000190734863,9 5,9.449999809265137 5,10 C5,10.550000190734863 4.550000190734863,11 4,11 C4,11 -4,11 -4,11z M1,14 C1,14.550000190734863 0.550000011920929,15 0,15 C0,15 -4,15 -4,15 C-4.550000190734863,15 -5,14.550000190734863 -5,14 C-5,13.449999809265137 -4.550000190734863,13 -4,13 C-4,13 0,13 0,13 C0.550000011920929,13 1,13.449999809265137 1,14z M4,7 C4,7 -4,7 -4,7 C-4.550000190734863,7 -5,6.550000190734863 -5,6 C-5,5.449999809265137 -4.550000190734863,5 -4,5 C-4,5 4,5 4,5 C4.550000190734863,5 5,5.449999809265137 5,6 C5,6.550000190734863 4.550000190734863,7 4,7z"/></g></g></g></g></svg>