<svg xmlns="http://www.w3.org/2000/svg" xmlns:xlink="http://www.w3.org/1999/xlink" viewBox="0 0 500 500" width="500" height="500" preserveAspectRatio="xMidYMid meet" style="width: 100%; height: 100%; transform: translate3d(0px, 0px, 0px); content-visibility: visible;"><defs><clipPath id="__lottie_element_396"><rect width="500" height="500" x="0" y="0"/></clipPath><clipPath id="__lottie_element_398"><path d="M0,0 L500,0 L500,500 L0,500z"/></clipPath><g id="__lottie_element_446"><g clip-path="url(#__lottie_element_447)" transform="matrix(1,0,0,1,0,0)" opacity="1" style="display: block;"><g class="primary design" transform="matrix(1,0,0,1,253.41900634765625,260.34698486328125)" opacity="1" style="display: block;"><g opacity="1" transform="matrix(1,0,0,1,0,0)"><path stroke-linecap="round" stroke-linejoin="round" fill-opacity="0" class="primary" stroke="rgb(18,19,49)" stroke-opacity="1" stroke-width="41" d=" M83.40299987792969,-61.749000549316406 C31.68199920654297,-10.305000305175781 -31.320999145507812,52.36199951171875 -31.320999145507812,52.36199951171875 C-31.320999145507812,52.36199951171875 -81.7760009765625,1.968999981880188 -83.49500274658203,0.2529999911785126"/></g></g><g class="primary design" transform="matrix(1,0,0,1,253.41900634765625,260.34698486328125)" opacity="1" style="display: block;"><g opacity="1" transform="matrix(1,0,0,1,0,0)"><path stroke-linecap="round" stroke-linejoin="round" fill-opacity="0" class="primary" stroke="rgb(18,19,49)" stroke-opacity="1" stroke-width="41" d="M0 0"/></g></g></g></g><clipPath id="__lottie_element_447"><path d="M0,0 L500,0 L500,500 L0,500z"/></clipPath><filter id="__lottie_element_450" filterUnits="objectBoundingBox" x="0%" y="0%" width="100%" height="100%"><feComponentTransfer in="SourceGraphic"><feFuncA type="table" tableValues="1.0 0.0"/></feComponentTransfer></filter><mask id="__lottie_element_446_2" mask-type="alpha"><g filter="url(#__lottie_element_450)"><rect width="500" height="500" x="0" y="0" fill="#ffffff" opacity="0"/><use xmlns:ns1="http://www.w3.org/1999/xlink" ns1:href="#__lottie_element_446"/></g></mask></defs><g clip-path="url(#__lottie_element_396)"><g clip-path="url(#__lottie_element_398)" transform="matrix(1,0,0,1,0,0)" opacity="1" style="display: block;"><g mask="url(#__lottie_element_446_2)" style="display: block;"><g class="primary design" transform="matrix(-1,0,0,-1,250.00399780273438,250.0030059814453)" opacity="1"><g opacity="1" transform="matrix(1,0,0,1,0,0)"><path stroke-linecap="round" stroke-linejoin="round" fill-opacity="0" class="primary" stroke="rgb(18,19,49)" stroke-opacity="1" stroke-width="31.3" d=" M192.65199279785156,-4.656000137329102 C195.2239990234375,101.74299621582031 111.05500030517578,190.0800018310547 4.656000137329102,192.65199279785156 C-101.74299621582031,195.2239990234375 -190.0800018310547,111.05500030517578 -192.65199279785156,4.656000137329102 C-195.2239990234375,-101.74299621582031 -111.05500030517578,-190.0800018310547 -4.656000137329102,-192.65199279785156 C101.74299621582031,-195.2239990234375 190.0800018310547,-111.05500030517578 192.65199279785156,-4.656000137329102z"/><path class="primary" fill="rgb(18,19,49)" fill-opacity="1" d=" M192.65199279785156,-4.656000137329102 C195.2239990234375,101.74299621582031 111.05500030517578,190.0800018310547 4.656000137329102,192.65199279785156 C-101.74299621582031,195.2239990234375 -190.0800018310547,111.05500030517578 -192.65199279785156,4.656000137329102 C-195.2239990234375,-101.74299621582031 -111.05500030517578,-190.0800018310547 -4.656000137329102,-192.65199279785156 C101.74299621582031,-195.2239990234375 190.0800018310547,-111.05500030517578 192.65199279785156,-4.656000137329102z"/></g></g></g><g class="primary design" transform="matrix(20.829999923706055,0,0,20.829999923706055,250,250)" opacity="1" style="display: none;"><g opacity="1" transform="matrix(1,0,0,1,0,0)"><path class="primary" fill="rgb(18,19,49)" fill-opacity="1" d=" M0,-10 C0,-10 -0.23999999463558197,-10 -0.23999999463558197,-10 C-5.75,-9.859999656677246 -10.130000114440918,-5.269999980926514 -10,0.23999999463558197 C-9.869999885559082,5.670000076293945 -5.409999847412109,10 0,10 C0,10 0.23999999463558197,10 0.23999999463558197,10 C5.75,9.859999656677246 10.130000114440918,5.269999980926514 10,-0.23999999463558197 C9.869999885559082,-5.670000076293945 5.409999847412109,-10 0,-10z M-1.340000033378601,4 C-1.600000023841858,4 -1.850000023841858,3.9000000953674316 -2.049999952316284,3.7100000381469727 C-2.049999952316284,3.7100000381469727 -4.550000190734863,1.2000000476837158 -4.550000190734863,1.2000000476837158 C-4.940000057220459,0.8100000023841858 -4.940000057220459,0.18000000715255737 -4.550000190734863,-0.20999999344348907 C-4.159999847412109,-0.6000000238418579 -3.5299999713897705,-0.6000000238418579 -3.140000104904175,-0.20999999344348907 C-3.140000104904175,-0.20999999344348907 -1.340000033378601,1.590000033378601 -1.340000033378601,1.590000033378601 C-1.340000033378601,1.590000033378601 3.4700000286102295,-3.2100000381469727 3.4700000286102295,-3.2100000381469727 C3.859999895095825,-3.5999999046325684 4.489999771118164,-3.5999999046325684 4.880000114440918,-3.2100000381469727 C5.269999980926514,-2.819999933242798 5.269999980926514,-2.190000057220459 4.880000114440918,-1.7999999523162842 C4.880000114440918,-1.7999999523162842 -0.6299999952316284,3.7100000381469727 -0.6299999952316284,3.7100000381469727 C-0.8299999833106995,3.9000000953674316 -1.0800000429153442,4 -1.340000033378601,4z"/></g></g></g></g></svg>