<svg version="1.1" id="Layer_1" xmlns="http://www.w3.org/2000/svg" xmlns:xlink="http://www.w3.org/1999/xlink" x="0px" y="0px"
	 width="100%" viewBox="0 0 961 982" enable-background="new 0 0 961 982" xml:space="preserve">
<path fill="#FFFFFF" opacity="1.000000" stroke="none" 
	d="
M502.000000,983.000000 
	C334.666656,983.000000 167.833328,983.000000 1.000000,983.000000 
	C1.000000,655.666687 1.000000,328.333344 1.000000,1.000000 
	C321.333344,1.000000 641.666687,1.000000 962.000000,1.000000 
	C962.000000,328.333344 962.000000,655.666687 962.000000,983.000000 
	C808.833313,983.000000 655.666687,983.000000 502.000000,983.000000 
M123.004753,547.280701 
	C124.326736,553.631836 125.772247,559.960083 126.949509,566.337952 
	C132.303909,595.345825 142.225296,622.832397 154.838120,649.375732 
	C163.563461,667.737976 173.921219,685.151001 185.861511,701.665466 
	C200.720215,722.216431 216.906082,741.448303 235.793091,758.517151 
	C251.610306,772.811707 268.192871,785.985718 286.081909,797.499878 
	C309.489594,812.565979 334.399628,824.688477 360.637909,833.958496 
	C379.906494,840.766174 399.517883,846.456177 419.875275,849.013367 
	C434.310638,850.826660 448.761353,853.448059 463.243835,853.731079 
	C483.387604,854.124573 503.629486,853.416992 523.711426,851.755676 
	C538.564819,850.526855 553.526672,848.128723 567.906128,844.264221 
	C587.054810,839.117798 606.024292,832.890015 624.429016,825.523254 
	C638.824097,819.761414 652.631287,812.211914 665.985413,804.257629 
	C679.352295,796.295654 692.256226,787.395020 704.583008,777.893799 
	C716.917419,768.386536 728.784058,758.136536 739.923767,747.257751 
	C749.053528,738.341858 756.857483,728.060974 765.172058,718.319397 
	C779.700500,701.297241 791.525818,682.445312 801.990295,662.751709 
	C816.410156,635.614136 827.310242,607.144897 834.516357,577.188049 
	C839.962952,554.545837 843.236023,531.705078 843.475403,508.461914 
	C843.630920,493.363190 843.657898,478.232758 842.854675,463.163879 
	C842.185364,450.606903 841.375854,437.854218 838.574951,425.659882 
	C833.913025,405.363434 828.313538,385.212433 821.811096,365.426697 
	C814.037598,341.774048 802.499573,319.700073 789.105835,298.749359 
	C771.753296,271.606201 752.179565,246.137939 727.499939,225.143524 
	C713.581421,213.303391 699.290894,201.831802 684.529175,191.070465 
	C668.514587,179.395813 650.996094,170.157135 632.932373,161.896881 
	C612.994690,152.779633 592.445312,145.404587 571.241760,140.135971 
	C546.647766,134.024902 521.735168,129.935165 496.168518,130.213120 
	C474.047882,130.453568 451.972107,129.587509 429.919983,132.840332 
	C410.434113,135.714615 391.353668,139.998093 372.582001,145.795517 
	C346.149475,153.958893 321.069122,165.202637 297.272491,179.303818 
	C275.034058,192.481674 254.178024,207.661865 235.433228,225.384583 
	C222.861496,237.270813 211.476059,250.466125 200.085312,263.533783 
	C184.855606,281.005524 172.483444,300.531494 161.632233,320.945160 
	C148.828537,345.031921 138.309891,370.135529 131.807632,396.690491 
	C127.992073,412.273041 124.596573,428.019440 122.226135,443.873657 
	C120.611664,454.671814 120.983154,465.780914 120.675804,476.756836 
	C120.327766,489.185913 119.753822,501.635712 120.136467,514.050049 
	C120.469215,524.845581 121.998047,535.604309 123.004753,547.280701 
z"/>
<path fill="#015BA9" opacity="1.000000" stroke="none" 
	d="
M123.001541,546.829956 
	C121.998047,535.604309 120.469215,524.845581 120.136467,514.050049 
	C119.753822,501.635712 120.327766,489.185913 120.675804,476.756836 
	C120.983154,465.780914 120.611664,454.671814 122.226135,443.873657 
	C124.596573,428.019440 127.992073,412.273041 131.807632,396.690491 
	C138.309891,370.135529 148.828537,345.031921 161.632233,320.945160 
	C172.483444,300.531494 184.855606,281.005524 200.085312,263.533783 
	C211.476059,250.466125 222.861496,237.270813 235.433228,225.384583 
	C254.178024,207.661865 275.034058,192.481674 297.272491,179.303818 
	C321.069122,165.202637 346.149475,153.958893 372.582001,145.795517 
	C391.353668,139.998093 410.434113,135.714615 429.919983,132.840332 
	C451.972107,129.587509 474.047882,130.453568 496.168518,130.213120 
	C521.735168,129.935165 546.647766,134.024902 571.241760,140.135971 
	C592.445312,145.404587 612.994690,152.779633 632.932373,161.896881 
	C650.996094,170.157135 668.514587,179.395813 684.529175,191.070465 
	C699.290894,201.831802 713.581421,213.303391 727.499939,225.143524 
	C752.179565,246.137939 771.753296,271.606201 789.105835,298.749359 
	C802.499573,319.700073 814.037598,341.774048 821.811096,365.426697 
	C828.313538,385.212433 833.913025,405.363434 838.574951,425.659882 
	C841.375854,437.854218 842.185364,450.606903 842.854675,463.163879 
	C843.657898,478.232758 843.630920,493.363190 843.475403,508.461914 
	C843.236023,531.705078 839.962952,554.545837 834.516357,577.188049 
	C827.310242,607.144897 816.410156,635.614136 801.990295,662.751709 
	C791.525818,682.445312 779.700500,701.297241 765.172058,718.319397 
	C756.857483,728.060974 749.053528,738.341858 739.923767,747.257751 
	C728.784058,758.136536 716.917419,768.386536 704.583008,777.893799 
	C692.256226,787.395020 679.352295,796.295654 665.985413,804.257629 
	C652.631287,812.211914 638.824097,819.761414 624.429016,825.523254 
	C606.024292,832.890015 587.054810,839.117798 567.906128,844.264221 
	C553.526672,848.128723 538.564819,850.526855 523.711426,851.755676 
	C503.629486,853.416992 483.387604,854.124573 463.243835,853.731079 
	C448.761353,853.448059 434.310638,850.826660 419.875275,849.013367 
	C399.517883,846.456177 379.906494,840.766174 360.637909,833.958496 
	C334.399628,824.688477 309.489594,812.565979 286.081909,797.499878 
	C268.192871,785.985718 251.610306,772.811707 235.793091,758.517151 
	C216.906082,741.448303 200.720215,722.216431 185.861511,701.665466 
	C173.921219,685.151001 163.563461,667.737976 154.838120,649.375732 
	C142.225296,622.832397 132.303909,595.345825 126.949509,566.337952 
	C125.772247,559.960083 124.326736,553.631836 123.001541,546.829956 
M251.622849,674.604797 
	C249.519608,681.073120 247.196777,687.481262 245.401535,694.033997 
	C244.437286,697.553467 242.619965,698.782776 239.123489,698.938232 
	C233.747025,699.177185 228.391846,699.895203 222.229279,700.486572 
	C224.352692,702.983154 226.040344,704.594299 227.275848,706.498779 
	C229.734680,710.289001 232.942963,711.010498 237.126068,709.901123 
	C240.908478,708.898071 244.816345,708.368042 248.668884,707.629456 
	C246.432709,711.096008 243.713013,713.660217 240.940643,716.166138 
	C237.763168,719.038147 240.374924,720.916626 242.172302,722.716064 
	C243.825272,724.370911 245.023010,727.896729 248.427353,724.785278 
	C257.019470,716.932495 265.730164,709.207458 274.200500,701.226624 
	C275.021423,700.453125 275.177704,697.784180 274.490906,696.793457 
	C270.019653,690.344238 269.107513,690.482239 263.135254,695.921387 
	C261.181366,697.700867 258.470276,698.648926 256.105499,699.977234 
	C255.768448,697.348267 256.022095,695.834961 256.745148,694.595459 
	C261.770844,685.980164 261.188232,678.483704 252.240631,671.878479 
	C251.121155,670.226746 249.821411,668.666992 248.921783,666.903137 
	C247.317566,663.757812 245.275696,663.020081 242.084457,664.725830 
	C239.256424,666.237427 236.748199,666.656311 234.548004,663.042725 
	C232.551315,659.763367 230.920776,657.269653 234.492538,653.998108 
	C235.691818,652.899658 236.773727,650.255920 236.258163,648.991821 
	C235.117737,646.195557 232.929901,643.826416 230.735199,640.656006 
	C228.924988,642.678833 227.579407,644.063599 226.367615,645.556946 
	C220.807495,652.408997 215.296753,659.301086 209.745453,666.160400 
	C203.412216,673.985840 203.640656,673.830322 208.830887,682.266541 
	C211.093292,685.943787 213.267075,686.128479 216.936142,684.886108 
	C228.248291,681.055786 239.674896,677.563477 251.622849,674.604797 
M458.432159,762.013306 
	C479.592651,763.920471 500.682678,763.306580 521.685425,760.118225 
	C583.989624,750.660095 637.184204,723.191101 679.825439,676.983276 
	C736.264587,615.823364 760.146362,543.130310 750.977051,460.332428 
	C743.673767,394.383942 715.316467,338.134583 666.456116,293.473206 
	C597.335754,230.292938 515.733948,208.184631 424.110962,227.088104 
	C306.761658,251.299377 218.626923,353.848663 211.238205,473.352875 
	C207.361023,536.062134 222.366119,594.080566 258.597656,645.622864 
	C307.020844,714.508972 373.682861,753.157654 458.432159,762.013306 
M766.230835,659.169800 
	C763.613403,655.784180 764.964905,649.017151 757.965881,650.103821 
	C759.304688,641.013611 765.319641,642.607422 772.305054,644.511108 
	C769.541687,638.988647 764.610535,635.885254 766.930725,630.096252 
	C769.475647,623.746704 774.854553,625.875549 779.909363,625.863647 
	C779.219299,624.333679 779.094177,623.297913 778.529785,622.922363 
	C772.958862,619.215393 774.020264,614.700562 776.121399,609.407227 
	C788.615479,577.930725 796.001282,545.315796 797.172058,511.392853 
	C797.312744,507.315643 797.737061,503.851654 803.134705,503.699554 
	C804.791260,503.652863 806.533386,502.388977 808.021667,501.369202 
	C814.025208,497.255463 813.969299,491.437134 807.615784,488.024017 
	C804.164062,486.169769 800.273071,484.846802 796.421814,484.088135 
	C790.232971,482.868958 787.962708,484.750061 786.924927,491.090363 
	C786.437805,494.066376 786.204102,497.083893 785.786133,500.679962 
	C776.201538,495.250366 773.454895,485.800751 768.940063,477.526031 
	C763.310486,483.877380 763.863953,494.464905 769.999512,498.410614 
	C773.704102,500.792999 777.928833,502.756592 782.190430,503.764679 
	C785.888672,504.639557 786.625854,506.247467 786.462036,509.565613 
	C784.808228,543.073792 777.981384,575.464233 765.468018,606.602173 
	C763.715698,610.962585 762.518555,614.983215 765.916321,619.016785 
	C756.063171,622.685242 754.595032,625.778381 757.646729,636.150269 
	C749.324280,636.366394 747.392151,642.977295 746.226257,649.018982 
	C745.153442,654.577576 743.563232,658.676147 738.149719,661.222107 
	C734.656616,662.864868 732.711609,666.144348 733.944519,670.369324 
	C735.159485,674.532715 737.721924,677.678467 742.172485,678.035339 
	C754.146179,678.995178 764.221375,673.766663 775.241272,667.818970 
	C772.042053,664.413025 769.534058,661.742920 766.230835,659.169800 
M738.883606,312.619690 
	C734.346619,306.867218 729.824585,301.102966 725.269653,295.364746 
	C715.746338,283.367493 714.475098,286.825104 726.759338,275.060425 
	C731.366394,270.648224 735.676941,265.926392 740.164001,261.303192 
	C732.368469,257.953247 732.058716,258.013306 726.785034,263.570221 
	C725.752869,264.657715 724.665039,265.692108 723.614868,266.762848 
	C718.952698,271.516418 714.035095,276.051636 709.712830,281.096802 
	C705.810913,285.651245 705.778687,289.884918 709.257874,293.719757 
	C732.761475,319.626221 751.024231,348.904968 764.318970,381.138062 
	C768.926575,392.309204 782.669006,392.258118 789.037598,385.589874 
	C790.938293,383.599762 792.835571,381.606384 794.990967,379.345367 
	C799.999512,385.716187 804.705688,391.729340 809.442017,397.718719 
	C813.491211,402.839294 814.382568,402.959381 820.332642,399.070709 
	C813.651184,390.548401 807.128174,381.938599 800.269531,373.605072 
	C796.964600,369.589417 791.540344,370.095032 788.239136,374.219604 
	C785.392151,377.776642 782.577942,381.359924 778.753418,386.188904 
	C767.433960,359.715424 755.264954,335.398590 738.883606,312.619690 
M349.777893,785.751160 
	C352.625488,789.117310 351.539307,791.763855 348.624664,794.563477 
	C344.716705,798.317139 341.154419,802.430664 337.135681,806.718323 
	C338.264709,806.929626 338.741974,807.154419 339.163513,807.076782 
	C343.081451,806.355225 346.993103,805.598022 350.900330,804.819885 
	C359.206604,803.165710 359.190491,803.166016 363.228729,810.543396 
	C365.439117,814.581543 367.708588,818.587341 369.951447,822.607727 
	C371.644470,816.147278 372.577789,810.223694 372.999146,804.263916 
	C373.236053,800.912964 374.839844,799.663879 377.822937,799.117920 
	C383.467621,798.084961 389.080872,796.880066 396.267029,795.432373 
	C390.368011,792.638550 385.959045,790.036987 381.211884,788.441956 
	C376.148468,786.740723 375.227448,783.815247 376.206207,779.039612 
	C377.198059,774.200317 377.534058,769.226501 378.157349,764.311646 
	C374.100098,767.145325 371.137756,770.259949 368.193573,773.391663 
	C362.357056,779.599976 362.372925,779.578918 354.753113,776.010742 
	C350.720123,774.122192 346.638275,772.338013 342.578461,770.506653 
	C342.390778,770.869446 342.203094,771.232178 342.015411,771.594910 
	C344.469666,776.108398 346.923889,780.621948 349.777893,785.751160 
M622.472351,802.109741 
	C619.738037,799.194946 617.154175,796.117126 614.225525,793.412842 
	C611.508789,790.904236 611.542053,788.653015 613.386475,785.624451 
	C616.188354,781.023682 618.576904,776.171265 621.141052,771.425720 
	C615.313904,772.826111 610.180603,774.980896 605.276794,777.570435 
	C602.421021,779.078491 600.565125,778.811829 598.459900,776.339111 
	C594.751343,771.983154 590.738525,767.886230 586.853088,763.680908 
	C586.463867,763.849182 586.074585,764.017517 585.685364,764.185791 
	C586.342102,769.528259 586.801941,774.904968 587.723511,780.201355 
	C588.356873,783.841064 587.726074,786.037476 583.917847,787.511108 
	C578.578735,789.577087 573.508545,792.337769 566.949768,795.453857 
	C574.632446,797.032532 580.782898,798.109375 586.807007,799.672852 
	C588.215088,800.038208 589.977295,801.911072 590.236450,803.334290 
	C591.361145,809.509888 591.989746,815.775818 592.798706,822.008911 
	C596.549744,816.990845 599.442688,811.805481 602.126709,806.514099 
	C603.432983,803.938782 604.807617,802.884155 607.976746,803.703857 
	C613.797485,805.209656 619.780579,806.087646 627.097839,807.497437 
	C625.053711,805.116882 624.000610,803.890442 622.472351,802.109741 
M187.857803,434.577606 
	C190.349670,435.131409 192.841537,435.685242 195.473190,436.270111 
	C196.385361,432.700989 197.113159,429.853333 197.973801,426.485809 
	C189.612793,424.287445 181.515366,422.158386 172.261673,419.725311 
	C180.144958,417.977875 186.558228,416.010406 193.110931,415.258850 
	C199.534378,414.522034 202.720551,411.712280 203.592346,405.326263 
	C203.969315,402.564972 203.770401,401.456635 200.902237,400.845245 
	C195.389557,399.670074 189.955475,398.124420 184.492645,396.717499 
	C177.801804,394.994293 171.114883,393.255798 164.313843,391.494781 
	C163.756943,393.267639 163.512848,394.403015 163.054245,395.443848 
	C160.852982,400.439911 162.717697,402.429504 167.881454,403.250824 
	C173.714508,404.178558 179.407364,405.987579 185.061401,407.388611 
	C177.223831,409.096802 169.420166,410.699829 161.682602,412.575562 
	C160.315552,412.906982 158.579453,414.140106 158.129822,415.366119 
	C156.901352,418.715668 156.268951,422.283813 155.298676,426.173492 
	C166.233398,428.968262 176.656357,431.632233 187.857803,434.577606 
M165.211533,494.868347 
	C159.828400,495.228119 154.445267,495.587921 148.837204,495.962769 
	C149.028763,499.707245 149.185654,502.774231 149.366302,506.305420 
	C157.174377,505.740204 164.343704,505.221252 171.513031,504.702271 
	C165.509628,509.138885 159.247772,512.733154 153.163757,516.606689 
	C151.852951,517.441223 150.423569,519.254028 150.369659,520.666626 
	C150.239212,524.084717 150.887924,527.532410 151.281555,531.573853 
	C164.960602,530.700073 178.443573,529.838867 192.353943,528.950378 
	C192.169968,525.351929 192.013550,522.292542 191.826721,518.638367 
	C183.452179,519.154907 175.483856,519.646362 167.515533,520.137878 
	C174.033340,515.219727 180.856018,511.270569 187.497665,507.037415 
	C188.946884,506.113708 190.540833,504.246704 190.681137,502.689209 
	C190.953690,499.664032 190.242722,496.550232 189.908340,493.160156 
	C181.659271,493.737061 173.903534,494.279449 165.211533,494.868347 
M173.812546,617.687988 
	C174.815643,617.996094 175.990463,618.809631 176.795990,618.536011 
	C187.940796,614.750244 199.061203,610.886353 210.099457,606.803284 
	C211.168579,606.407776 212.589203,604.043335 212.260864,603.245422 
	C209.324112,596.108765 206.852249,588.571045 202.623947,582.231689 
	C197.923325,575.184326 188.606308,573.983215 179.524551,577.481628 
	C170.874268,580.813843 166.089081,586.767090 167.236069,595.737854 
	C168.163712,602.993042 171.247147,609.972656 173.812546,617.687988 
M188.279297,649.194336 
	C193.273315,656.747681 191.285553,657.241577 200.207870,652.588135 
	C207.121368,648.982544 214.097610,645.496521 221.065109,641.995483 
	C230.086166,637.462402 230.097198,637.476868 224.767807,628.757385 
	C224.613632,628.505188 224.245575,628.383667 223.609344,627.951050 
	C220.584824,629.491394 217.430298,631.282471 214.113831,632.692871 
	C212.853226,633.229065 211.220337,632.889954 209.757095,632.949707 
	C209.896606,631.125732 209.398209,628.842957 210.310440,627.574829 
	C212.124100,625.053711 214.857208,623.215454 216.919739,620.842407 
	C217.867584,619.751831 218.925720,617.787964 218.547836,616.702637 
	C217.558548,613.860962 215.806381,611.284790 213.905121,607.763550 
	C208.761261,613.233948 204.199554,618.085266 199.251633,623.347290 
	C199.838226,623.606079 199.253784,623.362854 198.681610,623.093506 
	C193.985565,620.883240 189.589722,621.391113 185.731796,624.844788 
	C182.125000,628.073669 181.297958,632.213562 182.933670,636.663818 
	C184.413910,640.691162 186.262375,644.583069 188.279297,649.194336 
M262.258636,290.208130 
	C257.788300,288.713440 253.317978,287.218750 248.296234,285.539703 
	C248.388367,285.971924 248.169189,285.497192 248.208832,285.045166 
	C248.663834,279.858002 246.893494,275.793182 241.981110,273.680359 
	C237.013535,271.543793 232.349213,272.695740 228.709000,276.466858 
	C224.917862,280.394318 221.669113,284.839478 218.044556,288.935608 
	C215.646820,291.645325 216.497330,293.475769 219.011520,295.486511 
	C226.028961,301.098785 232.923035,306.865112 239.875259,312.559082 
	C247.446716,318.760223 246.124252,320.887573 253.849289,310.514313 
	C253.927170,310.409729 253.858978,310.196320 253.858978,309.436859 
	C251.260666,307.275757 248.245163,304.966705 245.501205,302.370636 
	C244.616745,301.533844 243.709778,299.511353 244.126266,298.797974 
	C244.722595,297.776611 246.608704,296.822205 247.794022,296.978363 
	C250.037216,297.273926 252.409454,298.009888 254.308746,299.220642 
	C259.317413,302.413605 262.924835,301.210022 265.813141,296.363342 
	C266.452698,295.290161 267.286499,294.332794 268.270203,292.997162 
	C266.188690,292.064453 264.549500,291.329956 262.258636,290.208130 
M150.598053,462.069458 
	C150.327957,464.203827 150.217041,466.373840 149.749298,468.463989 
	C149.099060,471.369659 150.489639,472.422668 153.054474,472.693695 
	C160.320511,473.461426 167.570999,474.485504 174.856750,474.919617 
	C179.880524,475.218903 184.988647,474.480042 188.640244,470.458954 
	C193.653305,464.938629 194.277863,458.134186 192.753876,451.283295 
	C191.344482,444.947632 186.467545,441.462952 180.398499,440.372955 
	C172.404785,438.937225 164.293991,438.116882 156.207993,437.278564 
	C155.216583,437.175781 153.345551,438.419342 153.126617,439.336182 
	C152.457870,442.136810 152.396729,445.082550 152.071472,448.240753 
	C154.798874,448.543518 156.933044,448.740906 159.055878,449.023376 
	C165.792557,449.919830 172.558014,450.661255 179.244888,451.844086 
	C182.499313,452.419739 185.028641,454.947418 183.859756,458.250702 
	C183.106888,460.378326 180.371811,462.071838 178.161560,463.311890 
	C176.919724,464.008575 174.930298,463.483978 173.291901,463.343506 
	C165.875549,462.707458 158.464294,462.012268 150.598053,462.069458 
M740.101624,696.723633 
	C737.749756,692.389587 735.794495,687.770996 732.942139,683.796082 
	C729.637817,679.191467 726.354309,679.051453 721.926636,682.753784 
	C719.312073,684.939941 717.099487,687.606689 713.595337,691.194763 
	C713.079956,686.095581 712.153564,682.330872 712.465271,678.671570 
	C712.870728,673.911621 714.388428,669.255127 715.113281,664.506165 
	C715.253418,663.588074 713.777100,661.481628 713.336609,661.559753 
	C708.000610,662.506104 701.284912,673.065857 703.232971,678.159302 
	C705.396423,683.815674 708.537415,689.098145 711.468994,694.976746 
	C705.441956,699.539795 702.940918,705.587036 707.314941,713.212952 
	C710.874573,719.418823 717.975708,723.211060 724.041443,722.183167 
	C725.567139,713.209839 719.397095,712.198120 711.218445,712.084473 
	C715.101440,707.641602 717.935852,704.398560 720.364685,701.619507 
	C724.539307,702.783875 727.983154,704.163208 731.547668,704.639771 
	C736.808350,705.343201 739.484985,702.871704 740.101624,696.723633 
M155.342194,552.301270 
	C155.877701,556.032471 156.072235,559.862488 157.110626,563.448059 
	C157.547516,564.956604 159.662125,566.847534 161.193741,567.026550 
	C169.604980,568.009216 178.071899,568.515442 186.519730,569.184814 
	C191.090561,569.546997 195.661453,569.908569 200.691574,570.306763 
	C200.089966,567.569641 199.310791,565.635071 199.311447,563.700806 
	C199.312943,559.336487 197.018631,558.421570 193.240463,558.772583 
	C190.735657,559.005310 188.200577,559.048950 187.907166,555.295593 
	C187.644073,551.930237 184.889526,548.271667 190.388901,546.285889 
	C192.185410,545.637146 194.566864,543.500549 194.663376,541.921143 
	C194.844940,538.949951 193.559326,535.889160 192.652481,531.830872 
	C179.947556,538.703857 167.912048,545.214661 155.342194,552.301270 
M233.056061,340.526367 
	C236.024506,335.917877 238.933701,331.269653 241.984131,326.716095 
	C243.749390,324.080963 245.441208,322.035889 241.450439,319.441437 
	C237.698334,317.002167 235.830109,318.008148 234.057175,321.428772 
	C233.296051,322.897278 232.260406,324.221161 231.391663,325.636658 
	C227.868134,331.377625 227.523315,331.415161 222.539703,326.348236 
	C224.952499,322.475800 227.389236,318.564972 229.797043,314.700562 
	C222.727066,308.679474 222.727386,308.679688 217.936295,316.083344 
	C217.575272,316.641235 217.143372,317.162445 216.849045,317.752869 
	C214.574829,322.314911 212.145065,321.183136 209.318863,318.033752 
	C211.371918,314.777924 213.093002,311.536041 215.306335,308.674988 
	C217.782043,305.474762 215.975266,304.144287 213.496979,302.481750 
	C211.020828,300.820709 209.238724,300.361359 207.407288,303.389984 
	C204.142502,308.788879 200.686707,314.078949 197.135483,319.295227 
	C195.316574,321.966949 195.699417,323.562897 198.469986,325.299225 
	C207.616272,331.031342 216.705353,336.864075 225.645905,342.910309 
	C229.020432,345.192413 231.056137,344.562836 233.056061,340.526367 
M188.736038,342.690643 
	C194.832550,347.980255 200.929062,353.269867 208.088669,359.481842 
	C197.439423,357.477875 188.223129,355.743561 178.933075,353.995361 
	C177.116180,357.754181 175.478027,361.143219 173.528030,365.177399 
	C185.229874,366.862061 196.351990,368.531769 207.495178,370.046539 
	C216.972809,371.334900 216.891068,371.211212 220.963196,362.788208 
	C222.181473,360.268311 221.951553,358.722137 219.842392,356.780731 
	C213.728012,351.152557 207.879105,345.236969 201.879791,339.482330 
	C198.363983,336.109924 194.760010,332.829437 190.950317,329.278900 
	C189.372208,332.450378 187.817856,334.720337 187.157455,337.225952 
	C186.770035,338.695831 187.805862,340.540802 188.736038,342.690643 
M267.483521,259.960388 
	C265.461853,260.724487 263.486908,261.686829 261.401031,262.178650 
	C260.140442,262.475891 258.707703,262.043030 257.352295,261.938202 
	C257.681824,260.427032 257.517548,258.421417 258.438110,257.501953 
	C260.741699,255.201126 263.537170,253.392776 266.376953,251.200241 
	C265.467468,249.364868 264.884827,247.340332 263.614624,245.938995 
	C262.832611,245.076172 260.684723,244.481125 259.692505,244.939606 
	C254.088440,247.529114 249.685043,251.515152 247.376801,257.412170 
	C243.637802,266.964325 250.102005,275.376526 260.206024,273.866028 
	C263.268677,273.408203 266.119476,271.663361 269.170074,270.943359 
	C270.888702,270.537750 272.816833,271.019958 274.650604,271.102203 
	C274.134796,272.877289 274.157501,275.233154 272.995087,276.310883 
	C270.271179,278.836456 266.979553,280.749786 263.699066,283.065308 
	C264.269012,284.078247 264.958862,285.020203 265.363251,286.071869 
	C267.187775,290.816925 270.101624,291.170441 273.681061,288.072174 
	C276.802368,285.370422 280.174591,282.793915 282.668335,279.568542 
	C286.898804,274.096893 286.898407,268.140564 283.481873,263.350189 
	C280.200684,258.749573 275.517395,257.640869 267.483521,259.960388 
M474.717133,789.008362 
	C473.881042,789.750305 473.054169,790.502930 472.206665,791.231628 
	C471.045776,792.229797 469.869263,793.209900 468.699493,794.197815 
	C467.779907,792.994385 466.840942,791.805115 465.947357,790.582703 
	C465.319489,789.723694 464.753418,788.819519 464.404388,788.299805 
	C461.800781,790.119934 459.359619,793.164001 457.344055,792.904236 
	C454.698547,792.563354 452.388519,789.618652 449.822510,787.710754 
	C447.082825,792.306824 441.440155,797.287781 446.995728,804.948486 
	C448.277740,806.716248 448.789856,809.285706 448.993011,811.545837 
	C449.556641,817.815369 449.621674,824.130798 450.230865,830.394287 
	C450.377625,831.903503 451.869629,833.281921 452.742981,834.720459 
	C453.783539,833.549194 455.500061,832.506226 455.750763,831.185059 
	C457.010590,824.546509 458.140869,817.859985 458.793793,811.139465 
	C459.130249,807.676758 460.592133,805.962646 463.652100,807.057312 
	C467.763611,808.528137 471.045380,807.952209 473.125916,804.281555 
	C475.754913,799.643372 479.153992,794.891602 474.717133,789.008362 
M319.669586,201.106430 
	C317.752106,202.166382 315.834625,203.226349 313.545776,204.491608 
	C325.537323,213.589554 339.911041,219.344772 343.537201,235.640106 
	C347.669434,233.469650 350.706055,231.874649 354.007172,230.140732 
	C352.792603,227.711319 351.920319,225.576477 350.722229,223.643585 
	C347.202545,217.965317 345.551849,212.078995 346.424591,205.215836 
	C347.140839,199.583466 346.570618,193.787491 346.570618,187.562637 
	C344.775604,188.378906 343.350769,189.163406 341.836304,189.690292 
	C336.993958,191.374893 334.999420,194.232590 336.634460,199.556061 
	C337.574768,202.617554 337.442200,206.008560 337.868439,209.953247 
	C334.411224,206.875854 331.287506,204.404236 328.544067,201.565186 
	C325.876160,198.804276 323.341888,198.310196 319.669586,201.106430 
M315.375610,252.895569 
	C318.091675,251.071533 320.807739,249.247498 323.907745,247.165619 
	C317.878937,238.130035 312.132080,229.516998 306.326630,220.816177 
	C309.482544,218.495865 312.093964,216.575867 314.740814,214.629868 
	C313.865631,213.188782 313.179962,212.238342 312.677063,211.199432 
	C310.874298,207.475266 308.723083,207.025284 305.253387,209.563766 
	C298.950226,214.175201 292.387634,218.439331 285.842377,222.708939 
	C283.371216,224.320908 283.121368,225.653183 284.655518,228.343933 
	C287.063995,232.568100 289.474915,232.707260 292.861542,229.746399 
	C293.915253,228.825180 295.280182,228.259995 296.753204,227.382568 
	C298.006256,229.240479 298.993134,230.759033 300.034882,232.238968 
	C304.896027,239.144775 309.772278,246.039902 315.375610,252.895569 
M493.816833,826.203491 
	C495.077332,822.926086 496.337799,819.648621 497.598328,816.371094 
	C501.335266,822.996948 504.891205,829.302002 508.447174,835.606995 
	C509.144989,835.400452 509.842834,835.193848 510.540649,834.987244 
	C510.725311,829.769531 514.858582,825.331604 511.906677,819.389404 
	C507.654266,810.829285 504.038239,801.954407 500.078491,793.246643 
	C499.254517,791.434692 498.115906,789.765808 497.122314,788.031006 
	C496.162170,789.905518 494.994507,791.704285 494.278381,793.667786 
	C491.398987,801.562561 489.212372,809.764832 485.692627,817.353943 
	C482.883850,823.410095 482.514923,830.188354 487.366943,836.751038 
	C487.947632,835.742737 488.420868,834.865662 488.945435,834.020386 
	C490.431641,831.625671 491.938904,829.243958 493.816833,826.203491 
M813.025330,464.557739 
	C805.533569,461.267761 805.538757,461.272583 800.094421,467.151001 
	C799.419739,467.879486 798.694702,468.573700 797.924255,469.199188 
	C793.871277,472.489960 791.459778,472.119568 788.648804,467.610657 
	C784.340271,460.699524 783.028198,453.099335 784.109131,445.125641 
	C784.811218,439.946381 787.703308,437.881714 793.083252,437.980591 
	C795.330078,438.021851 797.581665,437.806091 799.831055,437.707245 
	C799.834351,437.124878 799.837646,436.542542 799.840942,435.960175 
	C794.778625,432.740906 789.098206,432.989136 783.432312,434.071228 
	C777.834595,435.140289 774.293579,438.702698 773.188843,444.321259 
	C771.442200,453.204834 772.902100,461.611450 778.341675,468.892212 
	C780.107788,471.256195 782.963440,473.509064 785.746033,474.282196 
	C795.043823,476.865692 803.848083,475.164276 811.529663,469.140717 
	C812.651306,468.261169 812.987427,466.379944 813.025330,464.557739 
M630.988525,236.800842 
	C642.094299,231.442688 648.475525,216.317627 644.019409,205.914551 
	C635.831665,208.695953 635.200195,209.764725 637.069092,217.599487 
	C637.377197,218.891052 637.742798,220.184494 637.881042,221.498215 
	C638.397339,226.405411 636.707031,228.225372 631.704468,228.118240 
	C624.304260,227.959763 617.725403,225.458344 611.931335,220.901382 
	C605.983154,216.223129 605.622559,213.256088 609.911377,207.008011 
	C610.945740,205.501236 611.580383,203.720123 612.398804,202.065155 
	C611.901001,201.811157 611.403259,201.557144 610.905457,201.303146 
	C604.778931,204.808487 600.923096,210.115402 599.725525,217.159027 
	C598.673279,223.348068 602.092041,227.723267 606.772278,231.020081 
	C613.771057,235.950165 621.492676,238.587524 630.988525,236.800842 
M676.208618,232.053970 
	C680.857239,235.399567 683.820740,244.106323 682.340271,250.068787 
	C673.566284,248.767715 667.490051,242.584457 666.722229,234.175598 
	C659.832092,235.434235 655.323059,244.606476 659.810242,249.091736 
	C663.369629,252.649567 667.845337,255.546265 672.393616,257.744476 
	C674.468018,258.747040 678.148743,258.151642 680.326843,256.916229 
	C689.931091,251.468735 693.580322,235.863708 687.662292,226.549515 
	C687.070435,225.617920 684.815918,224.626923 684.191650,225.021591 
	C681.217651,226.901871 678.540649,229.251801 676.208618,232.053970 
M277.079559,247.436569 
	C282.813934,254.479523 288.548309,261.522491 294.571198,268.919830 
	C296.863495,267.074249 299.100677,265.788574 300.562439,263.902069 
	C301.434174,262.777100 301.888092,260.088776 301.167603,259.160217 
	C293.460144,249.226959 285.480347,239.505005 277.355743,229.453506 
	C274.411682,231.825821 271.745056,233.974579 268.602448,236.506897 
	C271.440216,240.159149 274.046753,243.513779 277.079559,247.436569 
M170.328583,374.777802 
	C167.610886,382.795563 165.993088,381.588440 175.091736,384.972565 
	C175.712723,385.203552 176.323090,385.463287 176.945312,385.690765 
	C186.701981,389.257507 196.459763,392.821198 206.614471,396.530609 
	C207.973999,392.693268 209.148224,389.378998 210.418442,385.793762 
	C198.029373,381.223602 186.253586,376.812317 174.395859,372.633606 
	C173.448334,372.299683 171.935104,373.571075 170.328583,374.777802 
M528.589050,789.902893 
	C527.296875,788.378540 526.004700,786.854187 524.712524,785.329773 
	C524.077698,785.412781 523.442810,785.495728 522.807983,785.578735 
	C522.066162,790.259705 519.782654,795.350098 520.894958,799.538757 
	C523.414551,809.027222 527.556702,818.091248 531.166626,827.277832 
	C531.827148,828.958801 533.090942,830.402710 534.076294,831.956055 
	C534.927795,830.176697 536.484863,828.410095 536.517334,826.615906 
	C536.744812,814.053162 534.765137,801.886902 528.589050,789.902893 
M429.375946,784.808594 
	C427.660187,787.046387 425.744690,789.164429 424.303894,791.567139 
	C423.444122,793.000854 422.901581,794.893372 422.949219,796.558716 
	C423.236572,806.604736 423.672119,816.648193 424.230286,826.682983 
	C424.317230,828.245300 425.287140,829.758545 425.848755,831.294495 
	C427.016418,830.084290 428.698303,829.077454 429.270386,827.631592 
	C433.875366,815.992554 435.147827,803.845947 433.650360,791.494568 
	C433.347931,788.999756 431.220123,786.726379 429.375946,784.808594 
M673.633850,274.581329 
	C682.313232,287.297943 687.189636,288.047058 701.610840,278.653961 
	C704.910095,276.505035 707.577332,272.792206 709.452454,269.229218 
	C711.098206,266.102203 711.226196,262.176392 712.296753,257.385193 
	C707.466553,258.629669 704.220947,259.465881 700.893494,260.323181 
	C701.056458,261.952423 701.105103,263.104797 701.294922,264.233398 
	C703.066589,274.768127 700.381775,277.516937 689.936096,275.379486 
	C685.245483,274.419678 680.641724,272.977448 676.064941,271.542450 
	C673.552063,270.754547 672.487793,271.093231 673.633850,274.581329 
M661.405945,222.928452 
	C665.671570,217.137894 669.937134,211.347336 674.500366,205.152679 
	C670.694458,205.152679 667.767578,204.667633 665.111328,205.307175 
	C663.011902,205.812637 660.380188,207.262207 659.476746,209.047455 
	C654.992004,217.909637 650.960205,227.003372 646.881226,236.066086 
	C646.247742,237.473648 646.195129,239.142624 645.873901,240.690720 
	C646.443176,240.974030 647.012512,241.257339 647.581787,241.540649 
	C652.056030,235.534317 656.530273,229.527969 661.405945,222.928452 
M793.015808,621.657104 
	C790.910583,622.141968 788.805298,622.626831 786.549744,623.146301 
	C787.145630,625.584412 787.560120,627.280334 787.974609,628.976196 
	C787.518433,628.815063 787.062195,628.653992 786.605957,628.492859 
	C785.620483,630.404663 784.125916,632.257324 783.893616,634.256653 
	C783.797119,635.087219 786.477417,637.176575 787.755005,637.066589 
	C792.933105,636.620972 791.260010,632.856873 790.298645,629.605286 
	C794.972168,628.448547 796.402710,626.055664 793.015808,621.657104 
M698.080200,698.285828 
	C704.438232,698.462402 701.942871,694.472839 701.708252,691.546936 
	C696.229004,689.684875 694.402771,692.172729 694.621826,696.839478 
	C692.613647,697.299683 690.901367,697.692017 689.386108,698.039246 
	C689.386108,700.445251 689.386108,702.486145 689.386108,704.812012 
	C691.766357,704.626892 693.706482,704.476013 695.492371,704.337097 
	C696.150879,702.169250 696.702759,700.352356 698.080200,698.285828 
M779.199463,641.816162 
	C774.530151,644.536499 778.113342,647.222229 778.859497,649.995056 
	C785.050293,648.723938 785.828674,648.201172 785.320923,645.342041 
	C784.800964,642.414185 783.617371,640.140564 779.199463,641.816162 
M636.019287,197.178696 
	C635.304993,194.245392 633.590210,192.663300 630.759033,194.433014 
	C629.486389,195.228561 627.991516,197.462509 628.302307,198.561752 
	C628.729309,200.072144 630.879211,202.228363 632.102356,202.112823 
	C633.897766,201.943222 637.774719,202.078949 636.019287,197.178696 
M817.190918,449.040405 
	C815.995239,448.213287 814.799561,447.386169 813.661987,446.599274 
	C808.032715,451.817810 808.189819,452.940765 815.897339,457.046509 
	C816.545288,454.357300 817.128967,451.934631 817.190918,449.040405 
M686.319824,691.645386 
	C685.925842,695.281616 687.824280,696.612915 691.057800,695.798279 
	C695.416870,694.700073 693.156311,691.574524 693.153992,687.678284 
	C690.312683,688.981567 688.262756,689.921814 686.319824,691.645386 
z"/>
<path fill="#F9FAFA" opacity="1.000000" stroke="none" 
	d="
M457.971741,762.004822 
	C373.682861,753.157654 307.020844,714.508972 258.597656,645.622864 
	C222.366119,594.080566 207.361023,536.062134 211.238205,473.352875 
	C218.626923,353.848663 306.761658,251.299377 424.110962,227.088104 
	C515.733948,208.184631 597.335754,230.292938 666.456116,293.473206 
	C715.316467,338.134583 743.673767,394.383942 750.977051,460.332428 
	C760.146362,543.130310 736.264587,615.823364 679.825439,676.983276 
	C637.184204,723.191101 583.989624,750.660095 521.685425,760.118225 
	C500.682678,763.306580 479.592651,763.920471 457.971741,762.004822 
M561.163879,559.500000 
	C561.163879,618.010925 561.163879,676.521912 561.163879,735.178833 
	C562.857422,735.017029 563.375916,735.054382 563.835815,734.907898 
	C565.419617,734.403564 566.988953,733.851624 568.553284,733.288635 
	C627.529968,712.064209 672.091614,673.440308 704.029053,620.026489 
	C731.016785,574.890869 740.348450,525.468445 737.985657,473.405304 
	C737.816162,469.669586 736.332642,469.091095 733.130249,469.108368 
	C719.133240,469.183777 705.135193,469.024323 691.137512,469.032318 
	C688.591736,469.033752 687.071228,468.562012 687.119263,465.486298 
	C687.402527,447.336487 687.637634,429.184814 687.682373,411.033264 
	C687.692139,407.078583 689.073425,405.963287 692.961731,406.069489 
	C702.903748,406.341095 712.858093,406.160034 722.836975,406.160034 
	C718.040771,376.169373 661.074707,296.625580 641.605408,293.453674 
	C641.605408,351.984528 641.605408,410.401947 641.605408,469.151184 
	C631.251709,469.151184 621.598389,468.985413 611.955017,469.223145 
	C607.338867,469.336945 605.996765,467.602264 606.070984,463.083160 
	C606.380188,444.260040 606.420715,425.431488 606.440247,406.604828 
	C606.483154,365.273163 606.453552,323.941406 606.453552,282.609711 
	C606.453552,267.055023 606.561157,266.822754 592.287231,260.210571 
	C582.431824,255.645172 572.227783,251.832565 561.163940,247.264206 
	C561.163940,351.972198 561.163940,455.236115 561.163879,559.500000 
M324.165283,397.500000 
	C324.165283,475.521484 324.165283,553.542969 324.165283,632.977905 
	C309.807556,618.985840 300.471497,603.433838 292.568085,587.122437 
	C270.671600,541.931702 262.771759,494.737305 274.476685,444.571594 
	C259.859955,444.571594 245.902985,444.480591 231.952957,444.749847 
	C230.874329,444.770630 229.158051,447.203033 228.893372,448.716553 
	C223.589157,479.048798 223.615372,509.420135 230.006317,539.542114 
	C247.147141,620.330872 291.417938,681.041138 364.727020,719.973938 
	C366.076752,720.690674 367.545746,721.182983 369.097290,721.838379 
	C369.097290,568.243286 369.097290,415.200897 369.097290,261.660675 
	C367.427795,262.295959 366.117493,262.567139 365.055115,263.233521 
	C352.805206,270.917511 340.609772,278.688263 328.359772,286.372101 
	C324.911896,288.534760 323.725159,291.404816 323.756775,295.527008 
	C324.015076,329.183716 324.057373,362.842133 324.165283,397.500000 
M399.156250,488.500000 
	C399.156250,568.817200 399.186127,649.134399 399.066620,729.451416 
	C399.060730,733.410889 399.852051,735.586426 404.054199,736.343994 
	C407.790558,737.017578 411.341461,738.661194 415.055145,739.531311 
	C424.533081,741.752014 434.056183,743.779785 444.364319,746.062622 
	C444.364319,575.908020 444.364319,407.107147 444.364319,238.183975 
	C443.103577,238.183975 442.078003,237.991638 441.151276,238.213104 
	C429.189545,241.071762 417.278809,244.156403 405.272522,246.809906 
	C400.470947,247.871063 399.031952,250.122086 399.042267,255.047028 
	C399.204651,332.531097 399.156281,410.015594 399.156250,488.500000 
M533.437988,243.731781 
	C533.512268,241.117004 532.421753,239.992233 529.631714,239.766373 
	C522.505432,239.189453 515.425049,238.034485 508.297363,237.488464 
	C496.194244,236.561325 484.073517,235.814926 471.947113,235.301605 
	C470.397675,235.236023 467.405304,236.991028 467.383942,237.953766 
	C467.081879,251.557770 467.178436,265.170624 467.178436,279.451813 
	C472.460907,279.451813 477.249481,279.693512 482.001709,279.381561 
	C486.452515,279.089417 487.973114,280.400360 487.955383,285.181366 
	C487.770447,334.977234 487.841461,384.774109 487.841461,434.570679 
	C487.841461,436.322113 487.841461,438.073547 487.841461,440.165649 
	C481.890778,440.165649 476.733521,440.362701 471.599945,440.098419 
	C468.004486,439.913269 467.035004,441.278656 467.099243,444.710785 
	C467.286133,454.699890 467.296753,464.697449 467.095001,474.685974 
	C467.024048,478.198853 468.159973,479.253143 471.648743,479.226715 
	C490.633636,479.082764 509.621063,479.065521 528.605469,479.238312 
	C532.302673,479.272003 533.619263,478.200623 533.509338,474.476074 
	C533.234314,465.162476 533.175781,455.840179 533.171631,446.521301 
	C533.145630,388.397552 533.145813,330.273773 533.171387,272.150024 
	C533.175415,262.995056 533.352173,253.840134 533.437988,243.731781 
M533.157715,705.500000 
	C533.157715,646.543640 533.148254,587.587341 533.170471,528.630981 
	C533.173035,521.810242 533.251953,514.986206 533.491760,508.170532 
	C533.606262,504.917084 532.431152,503.875153 529.149780,503.934570 
	C518.660950,504.124451 508.166626,504.004913 497.674408,504.004822 
	C494.565338,504.004791 491.456268,504.004791 487.889435,504.004791 
	C487.889435,571.027405 487.889435,637.406494 487.889435,704.549805 
	C482.152039,704.549805 476.871246,704.724731 471.608887,704.488831 
	C468.053864,704.329529 467.018921,705.675903 467.099457,709.120728 
	C467.301880,717.776245 467.166229,726.439636 467.166168,735.099915 
	C467.166138,739.356812 467.166138,743.613647 467.166138,747.935059 
	C469.090057,748.036133 470.252991,748.219116 471.397552,748.139282 
	C489.806427,746.855164 508.207367,745.450989 526.622803,744.272034 
	C533.546814,743.828735 533.503906,743.752625 533.446106,736.455017 
	C533.367126,726.469849 533.255432,716.484985 533.157715,705.500000 
M269.079346,348.621002 
	C258.784546,363.672852 250.534363,379.768127 243.523880,397.092285 
	C259.801849,397.092285 275.186127,397.092285 290.541748,397.092285 
	C290.541748,371.765320 290.541748,346.802399 290.541748,321.839447 
	C290.170013,321.673615 289.798279,321.507751 289.426575,321.341888 
	C282.778992,330.235535 276.131409,339.129150 269.079346,348.621002 
z"/>
<path fill="#F7FAFC" opacity="1.000000" stroke="none" 
	d="
M766.628418,659.121338 
	C769.534058,661.742920 772.042053,664.413025 775.241272,667.818970 
	C764.221375,673.766663 754.146179,678.995178 742.172485,678.035339 
	C737.721924,677.678467 735.159485,674.532715 733.944519,670.369324 
	C732.711609,666.144348 734.656616,662.864868 738.149719,661.222107 
	C743.563232,658.676147 745.153442,654.577576 746.226257,649.018982 
	C747.392151,642.977295 749.324280,636.366394 757.646729,636.150269 
	C754.595032,625.778381 756.063171,622.685242 765.916321,619.016785 
	C762.518555,614.983215 763.715698,610.962585 765.468018,606.602173 
	C777.981384,575.464233 784.808228,543.073792 786.462036,509.565613 
	C786.625854,506.247467 785.888672,504.639557 782.190430,503.764679 
	C777.928833,502.756592 773.704102,500.792999 769.999512,498.410614 
	C763.863953,494.464905 763.310486,483.877380 768.940063,477.526031 
	C773.454895,485.800751 776.201538,495.250366 785.786133,500.679962 
	C786.204102,497.083893 786.437805,494.066376 786.924927,491.090363 
	C787.962708,484.750061 790.232971,482.868958 796.421814,484.088135 
	C800.273071,484.846802 804.164062,486.169769 807.615784,488.024017 
	C813.969299,491.437134 814.025208,497.255463 808.021667,501.369202 
	C806.533386,502.388977 804.791260,503.652863 803.134705,503.699554 
	C797.737061,503.851654 797.312744,507.315643 797.172058,511.392853 
	C796.001282,545.315796 788.615479,577.930725 776.121399,609.407227 
	C774.020264,614.700562 772.958862,619.215393 778.529785,622.922363 
	C779.094177,623.297913 779.219299,624.333679 779.909363,625.863647 
	C774.854553,625.875549 769.475647,623.746704 766.930725,630.096252 
	C764.610535,635.885254 769.541687,638.988647 772.305054,644.511108 
	C765.319641,642.607422 759.304688,641.013611 757.965881,650.103821 
	C764.964905,649.017151 763.613403,655.784180 766.628418,659.121338 
M760.325867,657.770325 
	C757.902222,658.548889 755.301147,659.016357 753.137207,660.250305 
	C752.193604,660.788452 752.146118,662.898010 751.691711,664.293945 
	C753.153442,664.687866 754.839783,665.748352 756.033203,665.346130 
	C759.145935,664.297180 761.622742,662.321045 760.325867,657.770325 
M740.974609,672.149597 
	C743.900635,671.328674 746.826660,670.507812 749.752625,669.686951 
	C749.876221,669.056519 749.999817,668.426086 750.123413,667.795715 
	C748.436951,666.899597 746.678955,665.154663 745.079407,665.289490 
	C742.041870,665.545593 739.708618,669.355164 740.974609,672.149597 
M798.653870,489.179077 
	C797.980652,492.224884 797.307434,495.270691 796.634216,498.316498 
	C797.463074,498.600769 798.291931,498.885010 799.120789,499.169281 
	C800.346313,496.922638 801.932739,494.774567 802.588684,492.372406 
	C802.799377,491.600586 800.555237,490.158386 798.653870,489.179077 
z"/>
<path fill="#F8FBFD" opacity="1.000000" stroke="none" 
	d="
M739.067627,312.926270 
	C755.264954,335.398590 767.433960,359.715424 778.753418,386.188904 
	C782.577942,381.359924 785.392151,377.776642 788.239136,374.219604 
	C791.540344,370.095032 796.964600,369.589417 800.269531,373.605072 
	C807.128174,381.938599 813.651184,390.548401 820.332642,399.070709 
	C814.382568,402.959381 813.491211,402.839294 809.442017,397.718719 
	C804.705688,391.729340 799.999512,385.716187 794.990967,379.345367 
	C792.835571,381.606384 790.938293,383.599762 789.037598,385.589874 
	C782.669006,392.258118 768.926575,392.309204 764.318970,381.138062 
	C751.024231,348.904968 732.761475,319.626221 709.257874,293.719757 
	C705.778687,289.884918 705.810913,285.651245 709.712830,281.096802 
	C714.035095,276.051636 718.952698,271.516418 723.614868,266.762848 
	C724.665039,265.692108 725.752869,264.657715 726.785034,263.570221 
	C732.058716,258.013306 732.368469,257.953247 740.164001,261.303192 
	C735.676941,265.926392 731.366394,270.648224 726.759338,275.060425 
	C714.475098,286.825104 715.746338,283.367493 725.269653,295.364746 
	C729.824585,301.102966 734.346619,306.867218 739.067627,312.926270 
z"/>
<path fill="#F9FBFD" opacity="1.000000" stroke="none" 
	d="
M349.578003,785.443298 
	C346.923889,780.621948 344.469666,776.108398 342.015411,771.594910 
	C342.203094,771.232178 342.390778,770.869446 342.578461,770.506653 
	C346.638275,772.338013 350.720123,774.122192 354.753113,776.010742 
	C362.372925,779.578918 362.357056,779.599976 368.193573,773.391663 
	C371.137756,770.259949 374.100098,767.145325 378.157349,764.311646 
	C377.534058,769.226501 377.198059,774.200317 376.206207,779.039612 
	C375.227448,783.815247 376.148468,786.740723 381.211884,788.441956 
	C385.959045,790.036987 390.368011,792.638550 396.267029,795.432373 
	C389.080872,796.880066 383.467621,798.084961 377.822937,799.117920 
	C374.839844,799.663879 373.236053,800.912964 372.999146,804.263916 
	C372.577789,810.223694 371.644470,816.147278 369.951447,822.607727 
	C367.708588,818.587341 365.439117,814.581543 363.228729,810.543396 
	C359.190491,803.166016 359.206604,803.165710 350.900330,804.819885 
	C346.993103,805.598022 343.081451,806.355225 339.163513,807.076782 
	C338.741974,807.154419 338.264709,806.929626 337.135681,806.718323 
	C341.154419,802.430664 344.716705,798.317139 348.624664,794.563477 
	C351.539307,791.763855 352.625488,789.117310 349.578003,785.443298 
z"/>
<path fill="#F8FBFD" opacity="1.000000" stroke="none" 
	d="
M622.709961,802.386841 
	C624.000610,803.890442 625.053711,805.116882 627.097839,807.497437 
	C619.780579,806.087646 613.797485,805.209656 607.976746,803.703857 
	C604.807617,802.884155 603.432983,803.938782 602.126709,806.514099 
	C599.442688,811.805481 596.549744,816.990845 592.798706,822.008911 
	C591.989746,815.775818 591.361145,809.509888 590.236450,803.334290 
	C589.977295,801.911072 588.215088,800.038208 586.807007,799.672852 
	C580.782898,798.109375 574.632446,797.032532 566.949768,795.453857 
	C573.508545,792.337769 578.578735,789.577087 583.917847,787.511108 
	C587.726074,786.037476 588.356873,783.841064 587.723511,780.201355 
	C586.801941,774.904968 586.342102,769.528259 585.685364,764.185791 
	C586.074585,764.017517 586.463867,763.849182 586.853088,763.680908 
	C590.738525,767.886230 594.751343,771.983154 598.459900,776.339111 
	C600.565125,778.811829 602.421021,779.078491 605.276794,777.570435 
	C610.180603,774.980896 615.313904,772.826111 621.141052,771.425720 
	C618.576904,776.171265 616.188354,781.023682 613.386475,785.624451 
	C611.542053,788.653015 611.508789,790.904236 614.225525,793.412842 
	C617.154175,796.117126 619.738037,799.194946 622.709961,802.386841 
z"/>
<path fill="#F8FBFD" opacity="1.000000" stroke="none" 
	d="
M187.468567,434.436920 
	C176.656357,431.632233 166.233398,428.968262 155.298676,426.173492 
	C156.268951,422.283813 156.901352,418.715668 158.129822,415.366119 
	C158.579453,414.140106 160.315552,412.906982 161.682602,412.575562 
	C169.420166,410.699829 177.223831,409.096802 185.061401,407.388611 
	C179.407364,405.987579 173.714508,404.178558 167.881454,403.250824 
	C162.717697,402.429504 160.852982,400.439911 163.054245,395.443848 
	C163.512848,394.403015 163.756943,393.267639 164.313843,391.494781 
	C171.114883,393.255798 177.801804,394.994293 184.492645,396.717499 
	C189.955475,398.124420 195.389557,399.670074 200.902237,400.845245 
	C203.770401,401.456635 203.969315,402.564972 203.592346,405.326263 
	C202.720551,411.712280 199.534378,414.522034 193.110931,415.258850 
	C186.558228,416.010406 180.144958,417.977875 172.261673,419.725311 
	C181.515366,422.158386 189.612793,424.287445 197.973801,426.485809 
	C197.113159,429.853333 196.385361,432.700989 195.473190,436.270111 
	C192.841537,435.685242 190.349670,435.131409 187.468567,434.436920 
z"/>
<path fill="#F6F9FC" opacity="1.000000" stroke="none" 
	d="
M165.679657,494.845093 
	C173.903534,494.279449 181.659271,493.737061 189.908340,493.160156 
	C190.242722,496.550232 190.953690,499.664032 190.681137,502.689209 
	C190.540833,504.246704 188.946884,506.113708 187.497665,507.037415 
	C180.856018,511.270569 174.033340,515.219727 167.515533,520.137878 
	C175.483856,519.646362 183.452179,519.154907 191.826721,518.638367 
	C192.013550,522.292542 192.169968,525.351929 192.353943,528.950378 
	C178.443573,529.838867 164.960602,530.700073 151.281555,531.573853 
	C150.887924,527.532410 150.239212,524.084717 150.369659,520.666626 
	C150.423569,519.254028 151.852951,517.441223 153.163757,516.606689 
	C159.247772,512.733154 165.509628,509.138885 171.513031,504.702271 
	C164.343704,505.221252 157.174377,505.740204 149.366302,506.305420 
	C149.185654,502.774231 149.028763,499.707245 148.837204,495.962769 
	C154.445267,495.587921 159.828400,495.228119 165.679657,494.845093 
z"/>
<path fill="#FAFCFD" opacity="1.000000" stroke="none" 
	d="
M173.593414,617.381226 
	C171.247147,609.972656 168.163712,602.993042 167.236069,595.737854 
	C166.089081,586.767090 170.874268,580.813843 179.524551,577.481628 
	C188.606308,573.983215 197.923325,575.184326 202.623947,582.231689 
	C206.852249,588.571045 209.324112,596.108765 212.260864,603.245422 
	C212.589203,604.043335 211.168579,606.407776 210.099457,606.803284 
	C199.061203,610.886353 187.940796,614.750244 176.795990,618.536011 
	C175.990463,618.809631 174.815643,617.996094 173.593414,617.381226 
M178.927246,591.482910 
	C175.095383,597.026245 175.039291,600.409851 178.851868,606.145081 
	C185.457367,603.803894 192.108643,601.363159 198.822433,599.108582 
	C201.438553,598.230103 201.573105,596.784851 200.686127,594.552368 
	C197.396896,586.273438 188.548996,584.748596 178.927246,591.482910 
z"/>
<path fill="#F9FBFD" opacity="1.000000" stroke="none" 
	d="
M188.113892,648.864502 
	C186.262375,644.583069 184.413910,640.691162 182.933670,636.663818 
	C181.297958,632.213562 182.125000,628.073669 185.731796,624.844788 
	C189.589722,621.391113 193.985565,620.883240 198.681610,623.093506 
	C199.253784,623.362854 199.838226,623.606079 199.251633,623.347290 
	C204.199554,618.085266 208.761261,613.233948 213.905121,607.763550 
	C215.806381,611.284790 217.558548,613.860962 218.547836,616.702637 
	C218.925720,617.787964 217.867584,619.751831 216.919739,620.842407 
	C214.857208,623.215454 212.124100,625.053711 210.310440,627.574829 
	C209.398209,628.842957 209.896606,631.125732 209.757111,632.949707 
	C211.220337,632.889954 212.853226,633.229065 214.113831,632.692871 
	C217.430298,631.282471 220.584824,629.491394 223.609344,627.951050 
	C224.245575,628.383667 224.613632,628.505188 224.767807,628.757385 
	C230.097198,637.476868 230.086166,637.462402 221.065109,641.995483 
	C214.097610,645.496521 207.121368,648.982544 200.207870,652.588135 
	C191.285553,657.241577 193.273315,656.747681 188.113892,648.864502 
M202.717590,636.824158 
	C201.622681,635.423401 200.795303,633.437256 199.360031,632.781250 
	C197.827682,632.080872 195.386368,632.037354 193.969635,632.829651 
	C192.797302,633.485168 191.888535,635.842773 192.043762,637.322510 
	C192.228058,639.079468 193.675980,640.703979 194.576324,642.385864 
	C197.370178,640.766357 200.164032,639.146851 202.717590,636.824158 
z"/>
<path fill="#F9FBFD" opacity="1.000000" stroke="none" 
	d="
M262.584473,290.401794 
	C264.549500,291.329956 266.188690,292.064453 268.270203,292.997162 
	C267.286499,294.332794 266.452698,295.290161 265.813141,296.363342 
	C262.924835,301.210022 259.317413,302.413605 254.308746,299.220642 
	C252.409454,298.009888 250.037216,297.273926 247.794022,296.978363 
	C246.608704,296.822205 244.722595,297.776611 244.126266,298.797974 
	C243.709778,299.511353 244.616745,301.533844 245.501205,302.370636 
	C248.245163,304.966705 251.260666,307.275757 253.858978,309.436859 
	C253.858978,310.196320 253.927170,310.409729 253.849289,310.514313 
	C246.124252,320.887573 247.446716,318.760223 239.875259,312.559082 
	C232.923035,306.865112 226.028961,301.098785 219.011520,295.486511 
	C216.497330,293.475769 215.646820,291.645325 218.044556,288.935608 
	C221.669113,284.839478 224.917862,280.394318 228.709000,276.466858 
	C232.349213,272.695740 237.013535,271.543793 241.981110,273.680359 
	C246.893494,275.793182 248.663834,279.858002 248.208832,285.045166 
	C248.169189,285.497192 248.388367,285.971924 248.296234,285.539703 
	C253.317978,287.218750 257.788300,288.713440 262.584473,290.401794 
M233.945847,293.471710 
	C235.398285,293.275787 237.887482,293.452789 238.116272,292.816711 
	C238.928528,290.558502 239.614456,287.850983 239.031174,285.665070 
	C238.739792,284.573120 235.362579,283.376740 233.803589,283.796539 
	C232.036835,284.272308 229.511414,286.546204 229.558929,287.963104 
	C229.616959,289.693268 232.007553,291.345215 233.945847,293.471710 
z"/>
<path fill="#F8FBFD" opacity="1.000000" stroke="none" 
	d="
M252.593399,672.454224 
	C261.188232,678.483704 261.770844,685.980164 256.745148,694.595459 
	C256.022095,695.834961 255.768448,697.348267 256.105499,699.977234 
	C258.470276,698.648926 261.181366,697.700867 263.135254,695.921387 
	C269.107513,690.482239 270.019653,690.344238 274.490906,696.793457 
	C275.177704,697.784180 275.021423,700.453125 274.200500,701.226624 
	C265.730164,709.207458 257.019470,716.932495 248.427353,724.785278 
	C245.023010,727.896729 243.825272,724.370911 242.172302,722.716064 
	C240.374924,720.916626 237.763168,719.038147 240.940643,716.166138 
	C243.713013,713.660217 246.432709,711.096008 248.668884,707.629456 
	C244.816345,708.368042 240.908478,708.898071 237.126068,709.901123 
	C232.942963,711.010498 229.734680,710.289001 227.275848,706.498779 
	C226.040344,704.594299 224.352692,702.983154 222.229279,700.486572 
	C228.391846,699.895203 233.747025,699.177185 239.123489,698.938232 
	C242.619965,698.782776 244.437286,697.553467 245.401535,694.033997 
	C247.196777,687.481262 249.519608,681.073120 251.311127,674.296997 
	C250.999420,673.989197 250.938263,674.033936 251.217957,674.147339 
	C251.621384,673.887085 251.745132,673.513367 252.051331,672.969727 
	C252.233795,672.799744 252.593399,672.454224 252.593399,672.454224 
z"/>
<path fill="#F6F9FC" opacity="1.000000" stroke="none" 
	d="
M150.824615,461.703918 
	C158.464294,462.012268 165.875549,462.707458 173.291901,463.343506 
	C174.930298,463.483978 176.919724,464.008575 178.161560,463.311890 
	C180.371811,462.071838 183.106888,460.378326 183.859756,458.250702 
	C185.028641,454.947418 182.499313,452.419739 179.244888,451.844086 
	C172.558014,450.661255 165.792557,449.919830 159.055878,449.023376 
	C156.933044,448.740906 154.798874,448.543518 152.071472,448.240753 
	C152.396729,445.082550 152.457870,442.136810 153.126617,439.336182 
	C153.345551,438.419342 155.216583,437.175781 156.207993,437.278564 
	C164.293991,438.116882 172.404785,438.937225 180.398499,440.372955 
	C186.467545,441.462952 191.344482,444.947632 192.753876,451.283295 
	C194.277863,458.134186 193.653305,464.938629 188.640244,470.458954 
	C184.988647,474.480042 179.880524,475.218903 174.856750,474.919617 
	C167.570999,474.485504 160.320511,473.461426 153.054474,472.693695 
	C150.489639,472.422668 149.099060,471.369659 149.749298,468.463989 
	C150.217041,466.373840 150.327957,464.203827 150.824615,461.703918 
z"/>
<path fill="#F6F9FC" opacity="1.000000" stroke="none" 
	d="
M740.135925,697.134888 
	C739.484985,702.871704 736.808350,705.343201 731.547668,704.639771 
	C727.983154,704.163208 724.539307,702.783875 720.364685,701.619507 
	C717.935852,704.398560 715.101440,707.641602 711.218445,712.084473 
	C719.397095,712.198120 725.567139,713.209839 724.041443,722.183167 
	C717.975708,723.211060 710.874573,719.418823 707.314941,713.212952 
	C702.940918,705.587036 705.441956,699.539795 711.468994,694.976746 
	C708.537415,689.098145 705.396423,683.815674 703.232971,678.159302 
	C701.284912,673.065857 708.000610,662.506104 713.336609,661.559753 
	C713.777100,661.481628 715.253418,663.588074 715.113281,664.506165 
	C714.388428,669.255127 712.870728,673.911621 712.465271,678.671570 
	C712.153564,682.330872 713.079956,686.095581 713.595337,691.194763 
	C717.099487,687.606689 719.312073,684.939941 721.926636,682.753784 
	C726.354309,679.051453 729.637817,679.191467 732.942139,683.796082 
	C735.794495,687.770996 737.749756,692.389587 740.135925,697.134888 
M728.866943,690.470947 
	C727.415771,692.125977 725.964661,693.781006 724.256714,695.728943 
	C727.976013,697.715271 730.533081,696.464355 732.598450,694.274414 
	C733.273010,693.559143 733.479370,691.489807 732.935120,690.789490 
	C732.368774,690.060730 730.636475,690.238037 728.866943,690.470947 
z"/>
<path fill="#F8FBFD" opacity="1.000000" stroke="none" 
	d="
M251.028229,673.964539 
	C239.674896,677.563477 228.248291,681.055786 216.936142,684.886108 
	C213.267075,686.128479 211.093292,685.943787 208.830887,682.266541 
	C203.640656,673.830322 203.412216,673.985840 209.745453,666.160400 
	C215.296753,659.301086 220.807495,652.408997 226.367615,645.556946 
	C227.579407,644.063599 228.924988,642.678833 230.735199,640.656006 
	C232.929901,643.826416 235.117737,646.195557 236.258163,648.991821 
	C236.773727,650.255920 235.691818,652.899658 234.492538,653.998108 
	C230.920776,657.269653 232.551315,659.763367 234.548004,663.042725 
	C236.748199,666.656311 239.256424,666.237427 242.084457,664.725830 
	C245.275696,663.020081 247.317566,663.757812 248.921783,666.903137 
	C249.821411,668.666992 251.121155,670.226746 252.417023,672.166382 
	C252.593399,672.454224 252.233795,672.799744 251.820007,673.032776 
	C251.061417,673.406799 250.905426,673.662842 250.938263,674.033936 
	C250.938263,674.033936 250.999420,673.989197 251.028229,673.964539 
M218.885498,674.334473 
	C222.227997,673.076233 225.570496,671.817932 229.496323,670.340088 
	C227.829620,667.820923 226.556046,665.895996 225.092041,663.683228 
	C221.641144,667.644104 218.705154,671.014038 214.928604,675.348694 
	C216.966339,674.935181 217.582947,674.809998 218.885498,674.334473 
z"/>
<path fill="#F8FBFD" opacity="1.000000" stroke="none" 
	d="
M155.609375,552.013428 
	C167.912048,545.214661 179.947556,538.703857 192.652481,531.830872 
	C193.559326,535.889160 194.844940,538.949951 194.663376,541.921143 
	C194.566864,543.500549 192.185410,545.637146 190.388901,546.285889 
	C184.889526,548.271667 187.644073,551.930237 187.907166,555.295593 
	C188.200577,559.048950 190.735657,559.005310 193.240463,558.772583 
	C197.018631,558.421570 199.312943,559.336487 199.311447,563.700806 
	C199.310791,565.635071 200.089966,567.569641 200.691574,570.306763 
	C195.661453,569.908569 191.090561,569.546997 186.519730,569.184814 
	C178.071899,568.515442 169.604980,568.009216 161.193741,567.026550 
	C159.662125,566.847534 157.547516,564.956604 157.110626,563.448059 
	C156.072235,559.862488 155.877701,556.032471 155.609375,552.013428 
M178.929077,552.677185 
	C173.151260,551.859192 169.743820,556.242432 165.508347,558.629150 
	C170.197266,558.629150 174.886200,558.629150 180.002350,558.629150 
	C179.637543,556.622009 179.352676,555.054749 178.929077,552.677185 
z"/>
<path fill="#F8FBFD" opacity="1.000000" stroke="none" 
	d="
M232.880035,340.836639 
	C231.056137,344.562836 229.020432,345.192413 225.645905,342.910309 
	C216.705353,336.864075 207.616272,331.031342 198.469986,325.299225 
	C195.699417,323.562897 195.316574,321.966949 197.135483,319.295227 
	C200.686707,314.078949 204.142502,308.788879 207.407288,303.389984 
	C209.238724,300.361359 211.020828,300.820709 213.496979,302.481750 
	C215.975266,304.144287 217.782043,305.474762 215.306335,308.674988 
	C213.093002,311.536041 211.371918,314.777924 209.318863,318.033752 
	C212.145065,321.183136 214.574829,322.314911 216.849045,317.752869 
	C217.143372,317.162445 217.575272,316.641235 217.936295,316.083344 
	C222.727386,308.679688 222.727066,308.679474 229.797043,314.700562 
	C227.389236,318.564972 224.952499,322.475800 222.539703,326.348236 
	C227.523315,331.415161 227.868134,331.377625 231.391663,325.636658 
	C232.260406,324.221161 233.296051,322.897278 234.057175,321.428772 
	C235.830109,318.008148 237.698334,317.002167 241.450439,319.441437 
	C245.441208,322.035889 243.749390,324.080963 241.984131,326.716095 
	C238.933701,331.269653 236.024506,335.917877 232.880035,340.836639 
z"/>
<path fill="#F7FAFC" opacity="1.000000" stroke="none" 
	d="
M188.468750,342.453857 
	C187.805862,340.540802 186.770035,338.695831 187.157455,337.225952 
	C187.817856,334.720337 189.372208,332.450378 190.950317,329.278900 
	C194.760010,332.829437 198.363983,336.109924 201.879791,339.482330 
	C207.879105,345.236969 213.728012,351.152557 219.842392,356.780731 
	C221.951553,358.722137 222.181473,360.268311 220.963196,362.788208 
	C216.891068,371.211212 216.972809,371.334900 207.495178,370.046539 
	C196.351990,368.531769 185.229874,366.862061 173.528030,365.177399 
	C175.478027,361.143219 177.116180,357.754181 178.933075,353.995361 
	C188.223129,355.743561 197.439423,357.477875 208.088669,359.481842 
	C200.929062,353.269867 194.832550,347.980255 188.468750,342.453857 
z"/>
<path fill="#F8FAFD" opacity="1.000000" stroke="none" 
	d="
M267.863373,259.851501 
	C275.517395,257.640869 280.200684,258.749573 283.481873,263.350189 
	C286.898407,268.140564 286.898804,274.096893 282.668335,279.568542 
	C280.174591,282.793915 276.802368,285.370422 273.681061,288.072174 
	C270.101624,291.170441 267.187775,290.816925 265.363251,286.071869 
	C264.958862,285.020203 264.269012,284.078247 263.699066,283.065308 
	C266.979553,280.749786 270.271179,278.836456 272.995087,276.310883 
	C274.157501,275.233154 274.134796,272.877289 274.650604,271.102234 
	C272.816833,271.019958 270.888702,270.537750 269.170074,270.943359 
	C266.119476,271.663361 263.268677,273.408203 260.206024,273.866028 
	C250.102005,275.376526 243.637802,266.964325 247.376801,257.412170 
	C249.685043,251.515152 254.088440,247.529114 259.692505,244.939606 
	C260.684723,244.481125 262.832611,245.076172 263.614624,245.938995 
	C264.884827,247.340332 265.467468,249.364868 266.376953,251.200241 
	C263.537170,253.392776 260.741699,255.201126 258.438110,257.501953 
	C257.517548,258.421417 257.681824,260.427032 257.352295,261.938202 
	C258.707703,262.043030 260.140442,262.475891 261.401031,262.178650 
	C263.486908,261.686829 265.461853,260.724487 267.863373,259.851501 
z"/>
<path fill="#F8FAFD" opacity="1.000000" stroke="none" 
	d="
M475.105194,789.089966 
	C479.153992,794.891602 475.754913,799.643372 473.125916,804.281555 
	C471.045380,807.952209 467.763611,808.528137 463.652100,807.057312 
	C460.592133,805.962646 459.130249,807.676758 458.793793,811.139465 
	C458.140869,817.859985 457.010590,824.546509 455.750763,831.185059 
	C455.500061,832.506226 453.783539,833.549194 452.742981,834.720459 
	C451.869629,833.281921 450.377625,831.903503 450.230865,830.394287 
	C449.621674,824.130798 449.556641,817.815369 448.993011,811.545837 
	C448.789856,809.285706 448.277740,806.716248 446.995728,804.948486 
	C441.440155,797.287781 447.082825,792.306824 449.822510,787.710754 
	C452.388519,789.618652 454.698547,792.563354 457.344055,792.904236 
	C459.359619,793.164001 461.800781,790.119934 464.404388,788.299805 
	C464.753418,788.819519 465.319489,789.723694 465.947357,790.582703 
	C466.840942,791.805115 467.779907,792.994385 468.699463,794.197754 
	C469.869263,793.209900 471.045776,792.229797 472.206665,791.231628 
	C473.054169,790.502930 473.881042,789.750305 475.105194,789.089966 
z"/>
<path fill="#F6F9FC" opacity="1.000000" stroke="none" 
	d="
M320.015442,200.964752 
	C323.341888,198.310196 325.876160,198.804276 328.544067,201.565186 
	C331.287506,204.404236 334.411224,206.875854 337.868439,209.953247 
	C337.442200,206.008560 337.574768,202.617554 336.634460,199.556061 
	C334.999420,194.232590 336.993958,191.374893 341.836304,189.690292 
	C343.350769,189.163406 344.775604,188.378906 346.570618,187.562637 
	C346.570618,193.787491 347.140839,199.583466 346.424591,205.215836 
	C345.551849,212.078995 347.202545,217.965317 350.722229,223.643585 
	C351.920319,225.576477 352.792603,227.711319 354.007172,230.140732 
	C350.706055,231.874649 347.669434,233.469650 343.537201,235.640106 
	C339.911041,219.344772 325.537323,213.589554 313.545776,204.491608 
	C315.834625,203.226349 317.752106,202.166382 320.015442,200.964752 
z"/>
<path fill="#F9FBFD" opacity="1.000000" stroke="none" 
	d="
M315.009369,252.917206 
	C309.772278,246.039902 304.896027,239.144775 300.034882,232.238968 
	C298.993134,230.759033 298.006256,229.240479 296.753204,227.382568 
	C295.280182,228.259995 293.915253,228.825180 292.861542,229.746399 
	C289.474915,232.707260 287.063995,232.568100 284.655518,228.343933 
	C283.121368,225.653183 283.371216,224.320908 285.842377,222.708939 
	C292.387634,218.439331 298.950226,214.175201 305.253387,209.563766 
	C308.723083,207.025284 310.874298,207.475266 312.677063,211.199432 
	C313.179962,212.238342 313.865631,213.188782 314.740814,214.629868 
	C312.093964,216.575867 309.482544,218.495865 306.326630,220.816177 
	C312.132080,229.516998 317.878937,238.130035 323.907745,247.165619 
	C320.807739,249.247498 318.091675,251.071533 315.009369,252.917206 
z"/>
<path fill="#F8FAFD" opacity="1.000000" stroke="none" 
	d="
M493.627350,826.530273 
	C491.938904,829.243958 490.431641,831.625671 488.945435,834.020386 
	C488.420868,834.865662 487.947632,835.742737 487.366943,836.751038 
	C482.514923,830.188354 482.883850,823.410095 485.692627,817.353943 
	C489.212372,809.764832 491.398987,801.562561 494.278381,793.667786 
	C494.994507,791.704285 496.162170,789.905518 497.122314,788.031006 
	C498.115906,789.765808 499.254517,791.434692 500.078491,793.246643 
	C504.038239,801.954407 507.654266,810.829285 511.906677,819.389404 
	C514.858582,825.331604 510.725311,829.769531 510.540649,834.987244 
	C509.842834,835.193848 509.144989,835.400452 508.447174,835.606995 
	C504.891205,829.302002 501.335266,822.996948 497.598328,816.371094 
	C496.337799,819.648621 495.077332,822.926086 493.627350,826.530273 
z"/>
<path fill="#F6F9FC" opacity="1.000000" stroke="none" 
	d="
M813.356201,464.759979 
	C812.987427,466.379944 812.651306,468.261169 811.529663,469.140717 
	C803.848083,475.164276 795.043823,476.865692 785.746033,474.282196 
	C782.963440,473.509064 780.107788,471.256195 778.341675,468.892212 
	C772.902100,461.611450 771.442200,453.204834 773.188843,444.321259 
	C774.293579,438.702698 777.834595,435.140289 783.432312,434.071228 
	C789.098206,432.989136 794.778625,432.740906 799.840942,435.960175 
	C799.837646,436.542542 799.834351,437.124878 799.831055,437.707245 
	C797.581665,437.806091 795.330078,438.021851 793.083252,437.980591 
	C787.703308,437.881714 784.811218,439.946381 784.109131,445.125641 
	C783.028198,453.099335 784.340271,460.699524 788.648804,467.610657 
	C791.459778,472.119568 793.871277,472.489960 797.924255,469.199188 
	C798.694702,468.573700 799.419739,467.879486 800.094421,467.151001 
	C805.538757,461.272583 805.533569,461.267761 813.356201,464.759979 
z"/>
<path fill="#F6F9FC" opacity="1.000000" stroke="none" 
	d="
M630.604736,236.889847 
	C621.492676,238.587524 613.771057,235.950165 606.772278,231.020081 
	C602.092041,227.723267 598.673279,223.348068 599.725525,217.159027 
	C600.923096,210.115402 604.778931,204.808487 610.905457,201.303146 
	C611.403259,201.557144 611.901001,201.811157 612.398804,202.065155 
	C611.580383,203.720123 610.945740,205.501236 609.911377,207.008011 
	C605.622559,213.256088 605.983154,216.223129 611.931335,220.901382 
	C617.725403,225.458344 624.304260,227.959763 631.704468,228.118240 
	C636.707031,228.225372 638.397339,226.405411 637.881042,221.498215 
	C637.742798,220.184494 637.377197,218.891052 637.069092,217.599487 
	C635.200195,209.764725 635.831665,208.695953 644.019409,205.914551 
	C648.475525,216.317627 642.094299,231.442688 630.604736,236.889847 
z"/>
<path fill="#F6F9FC" opacity="1.000000" stroke="none" 
	d="
M675.983276,231.744293 
	C678.540649,229.251801 681.217651,226.901871 684.191650,225.021591 
	C684.815918,224.626923 687.070435,225.617920 687.662292,226.549515 
	C693.580322,235.863708 689.931091,251.468735 680.326843,256.916229 
	C678.148743,258.151642 674.468018,258.747040 672.393616,257.744476 
	C667.845337,255.546265 663.369629,252.649567 659.810242,249.091736 
	C655.323059,244.606476 659.832092,235.434235 666.722229,234.175598 
	C667.490051,242.584457 673.566284,248.767715 682.340271,250.068787 
	C683.820740,244.106323 680.857239,235.399567 675.983276,231.744293 
z"/>
<path fill="#F8FBFD" opacity="1.000000" stroke="none" 
	d="
M276.866425,247.152496 
	C274.046753,243.513779 271.440216,240.159149 268.602448,236.506897 
	C271.745056,233.974579 274.411682,231.825821 277.355743,229.453506 
	C285.480347,239.505005 293.460144,249.226959 301.167603,259.160217 
	C301.888092,260.088776 301.434174,262.777100 300.562439,263.902069 
	C299.100677,265.788574 296.863495,267.074249 294.571198,268.919830 
	C288.548309,261.522491 282.813934,254.479523 276.866425,247.152496 
z"/>
<path fill="#F8FBFD" opacity="1.000000" stroke="none" 
	d="
M170.506683,374.437134 
	C171.935104,373.571075 173.448334,372.299683 174.395859,372.633606 
	C186.253586,376.812317 198.029373,381.223602 210.418442,385.793762 
	C209.148224,389.378998 207.973999,392.693268 206.614471,396.530609 
	C196.459763,392.821198 186.701981,389.257507 176.945312,385.690765 
	C176.323090,385.463287 175.712723,385.203552 175.091736,384.972565 
	C165.993088,381.588440 167.610886,382.795563 170.506683,374.437134 
z"/>
<path fill="#F6F9FC" opacity="1.000000" stroke="none" 
	d="
M528.776794,790.229553 
	C534.765137,801.886902 536.744812,814.053162 536.517334,826.615906 
	C536.484863,828.410095 534.927795,830.176697 534.076294,831.956055 
	C533.090942,830.402710 531.827148,828.958801 531.166626,827.277832 
	C527.556702,818.091248 523.414551,809.027222 520.894958,799.538757 
	C519.782654,795.350098 522.066162,790.259705 522.807983,785.578735 
	C523.442810,785.495728 524.077698,785.412781 524.712524,785.329773 
	C526.004700,786.854187 527.296875,788.378540 528.776794,790.229553 
z"/>
<path fill="#F6F9FC" opacity="1.000000" stroke="none" 
	d="
M429.654907,784.579712 
	C431.220123,786.726379 433.347931,788.999756 433.650360,791.494568 
	C435.147827,803.845947 433.875366,815.992554 429.270386,827.631592 
	C428.698303,829.077454 427.016418,830.084290 425.848755,831.294495 
	C425.287140,829.758545 424.317230,828.245300 424.230286,826.682983 
	C423.672119,816.648193 423.236572,806.604736 422.949219,796.558716 
	C422.901581,794.893372 423.444122,793.000854 424.303894,791.567139 
	C425.744690,789.164429 427.660187,787.046387 429.654907,784.579712 
z"/>
<path fill="#F6F9FC" opacity="1.000000" stroke="none" 
	d="
M673.452026,274.246796 
	C672.487793,271.093231 673.552063,270.754547 676.064941,271.542450 
	C680.641724,272.977448 685.245483,274.419678 689.936096,275.379486 
	C700.381775,277.516937 703.066589,274.768127 701.294922,264.233398 
	C701.105103,263.104797 701.056458,261.952423 700.893494,260.323181 
	C704.220947,259.465881 707.466553,258.629669 712.296753,257.385193 
	C711.226196,262.176392 711.098206,266.102203 709.452454,269.229218 
	C707.577332,272.792206 704.910095,276.505035 701.610840,278.653961 
	C687.189636,288.047058 682.313232,287.297943 673.452026,274.246796 
z"/>
<path fill="#F6F9FC" opacity="1.000000" stroke="none" 
	d="
M661.205200,223.225037 
	C656.530273,229.527969 652.056030,235.534317 647.581787,241.540649 
	C647.012512,241.257339 646.443176,240.974030 645.873901,240.690720 
	C646.195129,239.142624 646.247742,237.473648 646.881226,236.066086 
	C650.960205,227.003372 654.992004,217.909637 659.476746,209.047455 
	C660.380188,207.262207 663.011902,205.812637 665.111328,205.307175 
	C667.767578,204.667633 670.694458,205.152679 674.500366,205.152679 
	C669.937134,211.347336 665.671570,217.137894 661.205200,223.225037 
z"/>
<path fill="#EDF3F6" opacity="1.000000" stroke="none" 
	d="
M793.334717,621.863403 
	C796.402710,626.055664 794.972168,628.448547 790.301941,629.603638 
	C791.260010,632.856873 792.933105,636.620972 787.755005,637.066589 
	C786.477417,637.176575 783.797119,635.087219 783.893616,634.256653 
	C784.125916,632.257324 785.620483,630.404663 786.605957,628.492859 
	C787.062195,628.653992 787.518433,628.815063 787.974609,628.976196 
	C787.560120,627.280334 787.145630,625.584412 786.549744,623.146301 
	C788.805298,622.626831 790.910583,622.141968 793.334717,621.863403 
z"/>
<path fill="#EDF3F6" opacity="1.000000" stroke="none" 
	d="
M697.667419,698.410645 
	C696.702759,700.352356 696.150879,702.169250 695.492371,704.337097 
	C693.706482,704.476013 691.766357,704.626892 689.386108,704.812012 
	C689.386108,702.486145 689.386108,700.445251 689.386108,698.039246 
	C690.901367,697.692017 692.613647,697.299683 694.621826,696.839478 
	C694.402771,692.172729 696.229004,689.684875 701.708252,691.546936 
	C701.942871,694.472839 704.438232,698.462402 697.667419,698.410645 
z"/>
<path fill="#EDF3F6" opacity="1.000000" stroke="none" 
	d="
M779.571716,641.685608 
	C783.617371,640.140564 784.800964,642.414185 785.320923,645.342041 
	C785.828674,648.201172 785.050293,648.723938 778.859497,649.995056 
	C778.113342,647.222229 774.530151,644.536499 779.571716,641.685608 
z"/>
<path fill="#EDF3F6" opacity="1.000000" stroke="none" 
	d="
M636.126343,197.545868 
	C637.774719,202.078949 633.897766,201.943222 632.102356,202.112823 
	C630.879211,202.228363 628.729309,200.072144 628.302307,198.561752 
	C627.991516,197.462509 629.486389,195.228561 630.759033,194.433014 
	C633.590210,192.663300 635.304993,194.245392 636.126343,197.545868 
z"/>
<path fill="#EDF3F6" opacity="1.000000" stroke="none" 
	d="
M817.451782,449.276184 
	C817.128967,451.934631 816.545288,454.357300 815.897339,457.046509 
	C808.189819,452.940765 808.032715,451.817810 813.661987,446.599274 
	C814.799561,447.386169 815.995239,448.213287 817.451782,449.276184 
z"/>
<path fill="#EDF3F6" opacity="1.000000" stroke="none" 
	d="
M686.266357,691.253723 
	C688.262756,689.921814 690.312683,688.981567 693.153992,687.678284 
	C693.156311,691.574524 695.416870,694.700073 691.057800,695.798279 
	C687.824280,696.612915 685.925842,695.281616 686.266357,691.253723 
z"/>
<path fill="#015BA9" opacity="1.000000" stroke="none" 
	d="
M561.163940,559.000000 
	C561.163940,455.236115 561.163940,351.972198 561.163940,247.264206 
	C572.227783,251.832565 582.431824,255.645172 592.287231,260.210571 
	C606.561157,266.822754 606.453552,267.055023 606.453552,282.609711 
	C606.453552,323.941406 606.483154,365.273163 606.440247,406.604828 
	C606.420715,425.431488 606.380188,444.260040 606.070984,463.083160 
	C605.996765,467.602264 607.338867,469.336945 611.955017,469.223145 
	C621.598389,468.985413 631.251709,469.151184 641.605408,469.151184 
	C641.605408,410.401947 641.605408,351.984528 641.605408,293.453674 
	C661.074707,296.625580 718.040771,376.169373 722.836975,406.160034 
	C712.858093,406.160034 702.903748,406.341095 692.961731,406.069489 
	C689.073425,405.963287 687.692139,407.078583 687.682373,411.033264 
	C687.637634,429.184814 687.402527,447.336487 687.119263,465.486298 
	C687.071228,468.562012 688.591736,469.033752 691.137512,469.032318 
	C705.135193,469.024323 719.133240,469.183777 733.130249,469.108368 
	C736.332642,469.091095 737.816162,469.669586 737.985657,473.405304 
	C740.348450,525.468445 731.016785,574.890869 704.029053,620.026489 
	C672.091614,673.440308 627.529968,712.064209 568.553284,733.288635 
	C566.988953,733.851624 565.419617,734.403564 563.835815,734.907898 
	C563.375916,735.054382 562.857422,735.017029 561.163879,735.178833 
	C561.163879,676.521912 561.163879,618.010925 561.163940,559.000000 
M682.981628,561.452332 
	C688.028198,546.286682 691.512817,530.798889 693.055359,514.158081 
	C690.990051,514.158081 689.376282,514.158081 687.762573,514.158081 
	C662.272827,514.158081 636.782288,514.257446 611.294067,514.060669 
	C607.019775,514.027710 606.063904,515.397949 606.075195,519.443359 
	C606.205200,566.090881 606.158142,612.738831 606.158142,659.386719 
	C606.158142,660.443298 606.158203,661.499817 606.158203,662.556396 
	C606.654968,662.772156 607.151733,662.987854 607.648499,663.203613 
	C642.614502,637.058899 667.930603,603.603149 682.981628,561.452332 
z"/>
<path fill="#015AA9" opacity="1.000000" stroke="none" 
	d="
M324.165314,397.000000 
	C324.057373,362.842133 324.015076,329.183716 323.756775,295.527008 
	C323.725159,291.404816 324.911896,288.534760 328.359772,286.372101 
	C340.609772,278.688263 352.805206,270.917511 365.055115,263.233521 
	C366.117493,262.567139 367.427795,262.295959 369.097290,261.660675 
	C369.097290,415.200897 369.097290,568.243286 369.097290,721.838379 
	C367.545746,721.182983 366.076752,720.690674 364.727020,719.973938 
	C291.417938,681.041138 247.147141,620.330872 230.006317,539.542114 
	C223.615372,509.420135 223.589157,479.048798 228.893372,448.716553 
	C229.158051,447.203033 230.874329,444.770630 231.952957,444.749847 
	C245.902985,444.480591 259.859955,444.571594 274.476685,444.571594 
	C262.771759,494.737305 270.671600,541.931702 292.568085,587.122437 
	C300.471497,603.433838 309.807556,618.985840 324.165283,632.977905 
	C324.165283,553.542969 324.165283,475.521484 324.165314,397.000000 
z"/>
<path fill="#045DAA" opacity="1.000000" stroke="none" 
	d="
M399.156250,488.000000 
	C399.156281,410.015594 399.204651,332.531097 399.042267,255.047028 
	C399.031952,250.122086 400.470947,247.871063 405.272522,246.809906 
	C417.278809,244.156403 429.189545,241.071762 441.151276,238.213104 
	C442.078003,237.991638 443.103577,238.183975 444.364319,238.183975 
	C444.364319,407.107147 444.364319,575.908020 444.364319,746.062622 
	C434.056183,743.779785 424.533081,741.752014 415.055145,739.531311 
	C411.341461,738.661194 407.790558,737.017578 404.054199,736.343994 
	C399.852051,735.586426 399.060730,733.410889 399.066620,729.451416 
	C399.186127,649.134399 399.156250,568.817200 399.156250,488.000000 
z"/>
<path fill="#015AA9" opacity="1.000000" stroke="none" 
	d="
M533.443542,244.208496 
	C533.352173,253.840134 533.175415,262.995056 533.171387,272.150024 
	C533.145813,330.273773 533.145630,388.397552 533.171631,446.521301 
	C533.175781,455.840179 533.234314,465.162476 533.509338,474.476074 
	C533.619263,478.200623 532.302673,479.272003 528.605469,479.238312 
	C509.621063,479.065521 490.633636,479.082764 471.648743,479.226715 
	C468.159973,479.253143 467.024048,478.198853 467.095001,474.685974 
	C467.296753,464.697449 467.286133,454.699890 467.099243,444.710785 
	C467.035004,441.278656 468.004486,439.913269 471.599945,440.098419 
	C476.733521,440.362701 481.890778,440.165649 487.841461,440.165649 
	C487.841461,438.073547 487.841461,436.322113 487.841461,434.570679 
	C487.841461,384.774109 487.770447,334.977234 487.955383,285.181366 
	C487.973114,280.400360 486.452515,279.089417 482.001709,279.381561 
	C477.249481,279.693512 472.460907,279.451813 467.178436,279.451813 
	C467.178436,265.170624 467.081879,251.557770 467.383942,237.953766 
	C467.405304,236.991028 470.397675,235.236023 471.947113,235.301605 
	C484.073517,235.814926 496.194244,236.561325 508.297363,237.488464 
	C515.425049,238.034485 522.505432,239.189453 529.631714,239.766373 
	C532.421753,239.992233 533.512268,241.117004 533.443542,244.208496 
z"/>
<path fill="#005AA9" opacity="1.000000" stroke="none" 
	d="
M533.157715,706.000000 
	C533.255432,716.484985 533.367126,726.469849 533.446106,736.455017 
	C533.503906,743.752625 533.546814,743.828735 526.622803,744.272034 
	C508.207367,745.450989 489.806427,746.855164 471.397552,748.139282 
	C470.252991,748.219116 469.090057,748.036133 467.166138,747.935059 
	C467.166138,743.613647 467.166138,739.356812 467.166168,735.099915 
	C467.166229,726.439636 467.301880,717.776245 467.099457,709.120728 
	C467.018921,705.675903 468.053864,704.329529 471.608887,704.488831 
	C476.871246,704.724731 482.152039,704.549805 487.889435,704.549805 
	C487.889435,637.406494 487.889435,571.027405 487.889435,504.004791 
	C491.456268,504.004791 494.565338,504.004791 497.674408,504.004822 
	C508.166626,504.004913 518.660950,504.124451 529.149780,503.934570 
	C532.431152,503.875153 533.606262,504.917084 533.491760,508.170532 
	C533.251953,514.986206 533.173035,521.810242 533.170471,528.630981 
	C533.148254,587.587341 533.157715,646.543640 533.157715,706.000000 
z"/>
<path fill="#015BA9" opacity="1.000000" stroke="none" 
	d="
M269.281616,348.321899 
	C276.131409,339.129150 282.778992,330.235535 289.426575,321.341888 
	C289.798279,321.507751 290.170013,321.673615 290.541748,321.839447 
	C290.541748,346.802399 290.541748,371.765320 290.541748,397.092285 
	C275.186127,397.092285 259.801849,397.092285 243.523880,397.092285 
	C250.534363,379.768127 258.784546,363.672852 269.281616,348.321899 
z"/>
<path fill="#0E63AE" opacity="1.000000" stroke="none" 
	d="
M760.623779,658.072083 
	C761.622742,662.321045 759.145935,664.297180 756.033203,665.346130 
	C754.839783,665.748352 753.153442,664.687866 751.691711,664.293945 
	C752.146118,662.898010 752.193604,660.788452 753.137207,660.250305 
	C755.301147,659.016357 757.902222,658.548889 760.623779,658.072083 
z"/>
<path fill="#0E63AE" opacity="1.000000" stroke="none" 
	d="
M740.594055,672.068237 
	C739.708618,669.355164 742.041870,665.545593 745.079407,665.289490 
	C746.678955,665.154663 748.436951,666.899597 750.123413,667.795715 
	C749.999817,668.426086 749.876221,669.056519 749.752625,669.686951 
	C746.826660,670.507812 743.900635,671.328674 740.594055,672.068237 
z"/>
<path fill="#0E63AE" opacity="1.000000" stroke="none" 
	d="
M799.044067,489.100983 
	C800.555237,490.158386 802.799377,491.600586 802.588684,492.372406 
	C801.932739,494.774567 800.346313,496.922638 799.120789,499.169281 
	C798.291931,498.885010 797.463074,498.600769 796.634216,498.316498 
	C797.307434,495.270691 797.980652,492.224884 799.044067,489.100983 
z"/>
<path fill="#0960AC" opacity="1.000000" stroke="none" 
	d="
M179.191833,591.215210 
	C188.548996,584.748596 197.396896,586.273438 200.686127,594.552368 
	C201.573105,596.784851 201.438553,598.230103 198.822433,599.108582 
	C192.108643,601.363159 185.457367,603.803894 178.851868,606.145081 
	C175.039291,600.409851 175.095383,597.026245 179.191833,591.215210 
z"/>
<path fill="#0E63AE" opacity="1.000000" stroke="none" 
	d="
M202.837738,637.175781 
	C200.164032,639.146851 197.370178,640.766357 194.576324,642.385864 
	C193.675980,640.703979 192.228058,639.079468 192.043762,637.322510 
	C191.888535,635.842773 192.797302,633.485168 193.969635,632.829651 
	C195.386368,632.037354 197.827682,632.080872 199.360031,632.781250 
	C200.795303,633.437256 201.622681,635.423401 202.837738,637.175781 
z"/>
<path fill="#0E63AE" opacity="1.000000" stroke="none" 
	d="
M233.667633,293.251343 
	C232.007553,291.345215 229.616959,289.693268 229.558929,287.963104 
	C229.511414,286.546204 232.036835,284.272308 233.803589,283.796539 
	C235.362579,283.376740 238.739792,284.573120 239.031174,285.665070 
	C239.614456,287.850983 238.928528,290.558502 238.116272,292.816711 
	C237.887482,293.452789 235.398285,293.275787 233.667633,293.251343 
z"/>
<path fill="#015BA9" opacity="1.000000" stroke="none" 
	d="
M251.217957,674.147339 
	C250.905426,673.662842 251.061417,673.406799 251.637543,673.202759 
	C251.745132,673.513367 251.621384,673.887085 251.217957,674.147339 
z"/>
<path fill="#0E63AE" opacity="1.000000" stroke="none" 
	d="
M729.140503,690.245056 
	C730.636475,690.238037 732.368774,690.060730 732.935120,690.789490 
	C733.479370,691.489807 733.273010,693.559143 732.598450,694.274414 
	C730.533081,696.464355 727.976013,697.715271 724.256714,695.728943 
	C725.964661,693.781006 727.415771,692.125977 729.140503,690.245056 
z"/>
<path fill="#0E63AE" opacity="1.000000" stroke="none" 
	d="
M218.542542,674.509644 
	C217.582947,674.809998 216.966339,674.935181 214.928604,675.348694 
	C218.705154,671.014038 221.641144,667.644104 225.092041,663.683228 
	C226.556046,665.895996 227.829620,667.820923 229.496323,670.340088 
	C225.570496,671.817932 222.227997,673.076233 218.542542,674.509644 
z"/>
<path fill="#0960AC" opacity="1.000000" stroke="none" 
	d="
M178.998444,553.082275 
	C179.352676,555.054749 179.637543,556.622009 180.002350,558.629150 
	C174.886200,558.629150 170.197266,558.629150 165.508347,558.629150 
	C169.743820,556.242432 173.151260,551.859192 178.998444,553.082275 
z"/>
<path fill="#FDFDFE" opacity="1.000000" stroke="none" 
	d="
M682.879761,561.834106 
	C667.930603,603.603149 642.614502,637.058899 607.648499,663.203613 
	C607.151733,662.987854 606.654968,662.772156 606.158203,662.556396 
	C606.158203,661.499817 606.158142,660.443298 606.158142,659.386719 
	C606.158142,612.738831 606.205200,566.090881 606.075195,519.443359 
	C606.063904,515.397949 607.019775,514.027710 611.294067,514.060669 
	C636.782288,514.257446 662.272827,514.158081 687.762573,514.158081 
	C689.376282,514.158081 690.990051,514.158081 693.055359,514.158081 
	C691.512817,530.798889 688.028198,546.286682 682.879761,561.834106 
z"/>
</svg>